<svg width="459" height="224" viewBox="0 0 459 224" fill="none" xmlns="http://www.w3.org/2000/svg">
<g clip-path="url(#clip0_1169_19985)">
<path d="M62.4753 178.586H407.655V3.84061H62.4753V178.586Z" fill="white"/>
<path d="M410.503 181.434H59.6292V0.993164H410.503V181.434ZM65.324 175.739H404.808V6.68802H65.324V175.739Z" fill="#E5E5E5"/>
<path d="M223.58 40.8088V100.119H137.362L121.434 119.231L123.252 100.119H115.502V40.8088H223.58Z" fill="#00F7FF"/>
<path d="M275.755 44.3279V82.3555H331.034L341.246 94.6085L340.081 82.3555H345.049V44.3279H275.755Z" fill="#F0F0F0"/>
<path d="M47.617 217.514H52.6043L54.9771 198.277H47.6165L47.617 217.514Z" fill="#FFB7B7"/>
<path d="M46.3455 215.885L56.1672 215.885H56.1676C57.8276 215.885 59.4196 216.545 60.5934 217.718C61.7672 218.892 62.4267 220.484 62.4268 222.144V222.348L46.3457 222.348L46.3455 215.885Z" fill="#2F2E41"/>
<path d="M107.535 217.35L112.378 216.158L110.085 196.912L102.938 198.671L107.535 217.35Z" fill="#FFB7B7"/>
<path d="M105.91 216.073L115.448 213.726L115.448 213.726C117.06 213.329 118.763 213.589 120.184 214.448C121.604 215.308 122.625 216.696 123.021 218.308L123.07 218.505L107.455 222.348L105.91 216.073Z" fill="#2F2E41"/>
<path d="M44.5498 212.927L45.5858 207.626C45.5858 207.626 47.4929 187.16 61.1793 166.734L65.6342 144.545C65.6342 144.545 64.3111 127.749 77.0808 118.658L81.0176 115.946L94.8204 116.737L98.0083 134.19L104.432 175.486C104.432 175.486 106.089 175.641 106.711 180.417C107.974 182.422 108.722 184.709 108.886 187.073C108.886 187.073 112.174 196.142 113.054 202.819L112.951 209.352L106.009 213.05L91.542 172.135L81.1943 149.261C81.1943 149.261 76.2139 165.378 68.5854 179.184C68.5854 179.184 58.137 201.799 56.0496 206.394L53.7704 213.913L44.5498 212.927Z" fill="#2F2E41"/>
<path d="M90.7002 80.8264C96.1489 80.8264 100.566 76.4093 100.566 70.9606C100.566 65.5119 96.1489 61.0948 90.7002 61.0948C85.2515 61.0948 80.8345 65.5119 80.8345 70.9606C80.8345 76.4093 85.2515 80.8264 90.7002 80.8264Z" fill="#FFB7B7"/>
<path d="M90.7002 80.8264C96.1489 80.8264 100.566 76.4093 100.566 70.9606C100.566 65.5119 96.1489 61.0948 90.7002 61.0948C85.2515 61.0948 80.8345 65.5119 80.8345 70.9606C80.8345 76.4093 85.2515 80.8264 90.7002 80.8264Z" fill="#FFB8B8"/>
<path d="M77.1101 118.763L80.3669 110.628C78.0659 103.174 78.2069 95.181 80.7695 87.8136L81.3926 87.3005C86.8209 82.8301 91.5853 83.644 96.0066 89.1124C96.7185 90.0014 97.5512 90.7865 98.4805 91.445C100.43 92.8131 103.524 100.246 99.4394 104.603L96.1717 123.664C96.5158 134.189 88.8789 130.226 77.1101 118.763Z" fill="#3F3D56"/>
<path d="M123.808 107.698C123.387 107.38 122.901 107.157 122.384 107.047C121.868 106.937 121.334 106.941 120.819 107.059C120.304 107.178 119.822 107.407 119.406 107.732C118.99 108.057 118.65 108.47 118.41 108.94L110.181 108.3L108.572 113.206L120.206 113.947C121.023 114.297 121.94 114.335 122.784 114.054C123.627 113.773 124.338 113.193 124.782 112.422C125.226 111.652 125.372 110.746 125.193 109.875C125.013 109.004 124.52 108.23 123.808 107.698H123.808Z" fill="#FFB7B7"/>
<path d="M115.929 115.657L92.4799 111.278L84.8531 98.4914C84.363 97.1326 84.4328 95.6349 85.047 94.3276C85.6613 93.0203 86.7697 92.0106 88.1285 91.5205C89.4872 91.0305 90.985 91.1003 92.2922 91.7145C93.5995 92.3288 94.6093 93.4372 95.0993 94.7959L98.6766 104.688L117.222 107.758L115.929 115.657Z" fill="#CCCCCC"/>
<path d="M73.1154 68.7999C78.3427 68.7999 82.5804 64.5623 82.5804 59.3349C82.5804 54.1076 78.3427 49.8699 73.1154 49.8699C67.888 49.8699 63.6504 54.1076 63.6504 59.3349C63.6504 64.5623 67.888 68.7999 73.1154 68.7999Z" fill="#2F2E41"/>
<path d="M64.9501 67.1722C66.1751 68.0577 67.5944 68.6368 69.0892 68.8613C70.584 69.0857 72.1108 68.9489 73.5419 68.4623C74.973 67.9757 76.2667 67.1535 77.3149 66.0644C78.363 64.9753 79.1351 63.651 79.5665 62.2023C79.4033 63.5006 78.9726 64.7509 78.3018 65.8743C77.631 66.9977 76.7345 67.9698 75.669 68.7292C74.6035 69.4887 73.3921 70.019 72.1113 70.2867C70.8305 70.5544 69.5081 70.5536 68.2277 70.2844C66.9472 70.0152 65.7364 69.4834 64.6718 68.7227C63.6072 67.962 62.7119 66.9888 62.0424 65.8646C61.3729 64.7404 60.9437 63.4896 60.782 62.1912C60.6203 60.8927 60.7296 59.5749 61.1029 58.3208C60.8909 60.0057 61.1362 61.7165 61.8131 63.2739C62.49 64.8313 63.5735 66.1778 64.9501 67.1722Z" fill="#2F2E41"/>
<path d="M102.303 67.183C100.651 64.2248 100.019 62.9891 97.8883 61.1902C96.0043 59.5994 93.6869 59.1322 91.8178 60.6396C89.6066 59.6842 87.1462 59.4676 84.8021 60.0219C82.4579 60.5761 80.3552 61.8718 78.806 63.7164C77.2569 65.5609 76.3441 67.856 76.2033 70.2606C76.0624 72.6652 76.7009 75.0512 78.024 77.064C79.3471 79.0768 81.2842 80.6092 83.5476 81.4335C85.8109 82.2577 88.2798 82.3299 90.5874 81.6392C92.895 80.9486 94.9183 79.5321 96.3568 77.5999C97.7952 75.6678 98.572 73.3233 98.5718 70.9145C98.5702 70.4915 98.5447 70.069 98.4956 69.6488C100.12 69.4206 100.679 67.4111 102.303 67.183Z" fill="#2F2E41"/>
<path d="M393.271 137.993C393.302 137.34 393.476 136.702 393.78 136.124C394.085 135.545 394.512 135.04 395.032 134.645C395.553 134.249 396.153 133.973 396.792 133.835C397.431 133.697 398.092 133.7 398.73 133.845L404.642 125.513L410.582 127.871L402.067 139.52C401.752 140.575 401.062 141.477 400.126 142.056C399.191 142.636 398.075 142.852 396.991 142.663C395.907 142.475 394.929 141.896 394.244 141.035C393.558 140.174 393.212 139.092 393.271 137.993Z" fill="#A0616A"/>
<path d="M399.756 130.827L410.268 113.148L405.985 101.728L411.818 86.173L412.033 86.2653C412.174 86.3257 415.488 87.8047 415.98 93.1011L422.683 114.168L404.793 137.375L399.756 130.827Z" fill="#3F3D56"/>
<path d="M342.667 65.8331C343.315 65.9144 343.938 66.1369 344.491 66.4849C345.044 66.833 345.514 67.2981 345.868 67.8475C346.223 68.3969 346.452 69.0173 346.54 69.6649C346.628 70.3125 346.574 70.9716 346.38 71.5957L354.23 78.1344L351.42 83.8739L340.464 74.4843C339.437 74.089 338.59 73.3307 338.085 72.3531C337.58 71.3755 337.451 70.2466 337.722 69.1802C337.994 68.1138 338.647 67.1841 339.559 66.5672C340.47 65.9503 341.576 65.6891 342.667 65.8331Z" fill="#A0616A"/>
<path d="M349.309 72.8533L366.123 84.7005L377.84 81.3136L392.898 88.3317L392.789 88.539C392.718 88.6749 390.987 91.8649 385.669 91.9452L364.147 96.9993L342.392 77.3691L349.309 72.8533Z" fill="#3F3D56"/>
<path d="M380.076 216.92H374.23L371.45 194.374L380.077 194.374L380.076 216.92Z" fill="#A0616A"/>
<path d="M370.054 215.25H381.327V222.348H362.957C362.957 221.416 363.14 220.493 363.497 219.632C363.854 218.771 364.376 217.988 365.035 217.329C365.695 216.67 366.477 216.147 367.338 215.79C368.199 215.434 369.122 215.25 370.054 215.25Z" fill="#2F2E41"/>
<path d="M403.437 216.92H397.592L394.811 194.374L403.438 194.374L403.437 216.92Z" fill="#A0616A"/>
<path d="M393.418 215.25H404.691V222.348H386.32C386.32 221.416 386.503 220.493 386.86 219.632C387.217 218.771 387.74 217.988 388.399 217.329C389.058 216.67 389.84 216.147 390.701 215.79C391.563 215.434 392.485 215.25 393.418 215.25Z" fill="#2F2E41"/>
<path d="M405.516 134.626L405.04 168L404.563 211.864L394.074 210.91L388.829 150.359L382.154 210.91H371.325L370.234 149.882L374.049 136.532L405.516 134.626Z" fill="#2F2E41"/>
<path d="M373.003 136.736L371.405 136.667L378.828 95.7787L375.789 83.4201C375.631 82.7771 375.714 82.0985 376.023 81.5129C376.332 80.9273 376.845 80.4754 377.465 80.2428L382.933 78.1924L384.865 72.8799L400.106 74.5222L400.481 78.6741C402.132 79.2039 415.733 83.7334 414.795 88.8945C413.869 93.9887 408.4 110.016 408.122 110.828L407.164 133.813L407.046 133.872C406.905 133.943 396.399 139.108 384.986 139.107C380.869 139.176 376.784 138.368 373.003 136.736Z" fill="#3F3D56"/>
<path d="M391.888 70.251C397.949 70.251 402.862 65.3378 402.862 59.277C402.862 53.2163 397.949 48.3031 391.888 48.3031C385.827 48.3031 380.914 53.2163 380.914 59.277C380.914 65.3378 385.827 70.251 391.888 70.251Z" fill="#A0616A"/>
<path d="M400.778 69.9001C398.686 72.1279 394.802 70.932 394.53 67.8885C394.508 67.6522 394.51 67.4144 394.534 67.1785C394.675 65.8303 395.454 64.6064 395.267 63.183C395.225 62.8288 395.093 62.4912 394.884 62.2022C393.217 59.9705 389.305 63.2003 387.732 61.1801C386.768 59.9413 387.902 57.9909 387.162 56.6064C386.185 54.779 383.292 55.6805 381.477 54.6797C379.458 53.5663 379.579 50.469 380.908 48.5851C382.529 46.2876 385.37 45.0616 388.176 44.885C390.982 44.7083 393.769 45.4668 396.388 46.4877C399.365 47.6477 402.316 49.2507 404.148 51.8679C406.375 55.0507 406.59 59.3297 405.476 63.0514C404.798 65.3153 402.485 68.0809 400.778 69.9001Z" fill="#2F2E41"/>
<path d="M281.879 213.889L283.51 209.695L268.111 201.411L265.704 207.6L281.879 213.889Z" fill="#FFB8B8"/>
<path d="M290.615 202.949C289.924 202.68 289.186 202.55 288.445 202.566C287.704 202.582 286.973 202.744 286.294 203.043C285.615 203.342 285.002 203.771 284.489 204.307C283.976 204.843 283.574 205.475 283.306 206.166L282.206 208.993L280.511 213.356L280.096 214.426L285.53 216.54L290.786 203.017L290.615 202.949Z" fill="#2F2E41"/>
<path d="M280.511 205.818L279.802 207.699L278.032 212.392L277.99 212.509C273.481 213.088 268.539 211.953 263.968 210.189C262.139 209.483 260.347 208.684 258.601 207.794C256.015 206.487 253.701 205.109 251.854 203.93C249.074 202.145 247.355 200.805 247.355 200.805C247.355 200.805 246.901 201.216 246.079 201.92C244.977 202.862 243.217 204.334 240.988 206.066C240.137 206.732 239.224 207.428 238.248 208.155C231.055 213.49 221.823 199.253 221.823 199.253C221.823 199.253 224.42 197.6 225.098 197.279C227.282 196.246 232.413 193.808 236.839 191.641C239.12 190.523 241.211 189.475 242.615 188.73C247.586 186.083 253.765 191.091 253.765 191.091L280.511 205.818Z" fill="#2F2E41"/>
<path opacity="0.14" d="M280.511 205.818L279.802 207.699L278.032 212.392L277.99 212.509C273.481 213.088 268.539 211.953 263.968 210.189C262.139 209.483 260.347 208.684 258.601 207.794C256.015 206.487 253.701 205.109 251.854 203.93C249.074 202.145 247.355 200.805 247.355 200.805C247.355 200.805 246.901 201.216 246.079 201.92C244.977 202.862 243.217 204.334 240.988 206.066C240.137 206.732 239.224 207.428 238.248 208.155C231.055 213.49 221.823 199.253 221.823 199.253C221.823 199.253 224.42 197.6 225.098 197.279C227.282 196.246 232.413 193.808 236.839 191.641C239.12 190.523 241.211 189.475 242.615 188.73C247.586 186.083 253.765 191.091 253.765 191.091L280.511 205.818Z" fill="black"/>
<path d="M208.559 166.348H187.274C186.836 166.348 186.416 166.173 186.107 165.864C185.797 165.554 185.623 165.134 185.622 164.697V155.522C185.622 152.261 186.918 149.134 189.223 146.829C191.529 144.523 194.656 143.228 197.916 143.228C201.177 143.228 204.304 144.523 206.61 146.829C208.915 149.134 210.211 152.261 210.211 155.522V164.697C210.21 165.134 210.036 165.554 209.726 165.864C209.417 166.173 208.997 166.348 208.559 166.348Z" fill="#2F2E41"/>
<path d="M228.802 177.872C228.306 177.959 227.836 178.154 227.424 178.442C227.012 178.731 226.668 179.106 226.416 179.542C226.165 179.978 226.012 180.463 225.969 180.964C225.925 181.466 225.992 181.97 226.165 182.443L220.377 187.766L222.754 192.073L230.822 184.44C231.597 184.097 232.219 183.482 232.57 182.712C232.922 181.941 232.978 181.068 232.729 180.259C232.48 179.449 231.943 178.759 231.219 178.319C230.495 177.879 229.635 177.72 228.802 177.872V177.872Z" fill="#FFB8B8"/>
<path d="M211.386 202.076C211.124 202.076 210.863 202.064 210.6 202.042C209.039 201.911 207.536 201.387 206.233 200.516C204.93 199.646 203.87 198.459 203.151 197.067L193.878 179.219C193.271 178.05 193.138 176.691 193.506 175.426C193.875 174.161 194.717 173.086 195.858 172.426C196.998 171.766 198.349 171.571 199.63 171.882C200.911 172.193 202.023 172.985 202.734 174.094L211.289 193.289L222.929 183.831L229.669 186.455L218.287 199.021C217.412 199.982 216.346 200.75 215.158 201.275C213.97 201.801 212.685 202.074 211.386 202.076Z" fill="#00F7FF"/>
<path d="M280.579 219.787L282.526 215.731L267.81 206.288L264.935 212.274L280.579 219.787Z" fill="#FFB8B8"/>
<path d="M290.128 209.55C289.46 209.229 288.735 209.043 287.994 209.002C287.254 208.961 286.513 209.066 285.813 209.312C285.113 209.558 284.469 209.939 283.916 210.434C283.364 210.929 282.915 211.528 282.594 212.196L281.28 214.931L279.255 219.151L278.759 220.186L284.014 222.711L290.294 209.631L290.128 209.55Z" fill="#2F2E41"/>
<path d="M279.835 211.635L278.984 213.455L276.859 217.999L276.807 218.112C272.268 218.344 267.427 216.832 263.005 214.721C261.236 213.877 259.511 212.943 257.838 211.921C255.361 210.42 253.159 208.868 251.408 207.55C248.773 205.558 247.162 204.09 247.162 204.09C247.162 204.09 246.678 204.464 245.804 205.103C244.634 205.958 242.766 207.29 240.409 208.846C239.51 209.444 238.546 210.068 237.518 210.717C229.936 215.485 219.153 221.29 209.982 222.516C193.875 224.67 197.666 203.176 197.666 203.176L210.485 196.519L215.928 197.623L221.987 198.849L224.133 199.286C224.133 199.286 224.541 199.132 225.242 198.864C227.499 198.001 232.802 195.964 237.382 194.144C239.741 193.205 241.907 192.32 243.364 191.685C248.524 189.428 254.3 194.897 254.3 194.897L279.835 211.635Z" fill="#2F2E41"/>
<path d="M174.209 223.029C174.699 222.917 175.159 222.698 175.556 222.389C175.952 222.079 176.276 221.687 176.505 221.239C176.733 220.791 176.861 220.298 176.878 219.795C176.896 219.292 176.803 218.792 176.606 218.329L182.111 212.713L179.514 208.535L171.852 216.575C171.096 216.957 170.506 217.603 170.195 218.391C169.884 219.179 169.873 220.054 170.163 220.849C170.454 221.645 171.026 222.306 171.772 222.708C172.517 223.11 173.385 223.224 174.209 223.029H174.209Z" fill="#FFB8B8"/>
<path d="M200.931 166.758C205.671 166.758 209.514 162.915 209.514 158.175C209.514 153.435 205.671 149.593 200.931 149.593C196.191 149.593 192.349 153.435 192.349 158.175C192.349 162.915 196.191 166.758 200.931 166.758Z" fill="#FFB8B8"/>
<path d="M189.765 181.999L197.241 203.195L197.196 203.269C196.156 204.988 195.816 206.375 196.213 207.279C196.318 207.509 196.471 207.713 196.662 207.878C196.854 208.043 197.078 208.165 197.321 208.235L215.013 195.868L214.394 190.912L214.428 190.857C216.138 188.12 216.692 185.643 216.074 183.492C215.514 181.752 214.306 180.294 212.7 179.422L212.638 179.373L203.814 168.633L192.018 170.729L189.765 181.999Z" fill="#00F7FF"/>
<path d="M178.396 219.203L173.387 213.039L185.461 193.108L191.09 175.708L191.265 175.764L191.09 175.708C191.398 174.757 191.906 173.884 192.579 173.146C193.253 172.408 194.077 171.823 194.996 171.431C195.915 171.039 196.907 170.848 197.906 170.871C198.904 170.895 199.886 171.132 200.786 171.567C201.685 172.003 202.481 172.626 203.119 173.394C203.757 174.163 204.223 175.059 204.485 176.023C204.748 176.987 204.8 177.996 204.64 178.982C204.479 179.969 204.109 180.909 203.555 181.74L193.22 197.223L178.396 219.203Z" fill="#00F7FF"/>
<path d="M213.119 156.439H200.104L199.97 154.571L199.303 156.439H197.299L197.034 152.736L195.712 156.439H191.834V156.256C191.837 153.677 192.862 151.205 194.685 149.382C196.509 147.559 198.98 146.533 201.559 146.531H203.394C205.972 146.533 208.444 147.559 210.267 149.382C212.091 151.205 213.116 153.677 213.119 156.256V156.439Z" fill="#2F2E41"/>
<path d="M199.998 168.061C199.9 168.061 199.802 168.052 199.706 168.035L190.175 166.353V150.602H200.666L200.407 150.905C196.793 155.12 199.515 161.954 201.46 165.652C201.603 165.923 201.667 166.229 201.644 166.535C201.621 166.84 201.513 167.133 201.331 167.38C201.178 167.591 200.978 167.762 200.746 167.881C200.514 167.999 200.258 168.061 199.998 168.061Z" fill="#2F2E41"/>
<path d="M342.387 139.842V162.032H244.084L229.889 179.063L231.511 162.032H224.604V139.842H342.387Z" fill="#F0F0F0"/>
<path d="M265.472 154.923C267.693 154.923 269.494 153.122 269.494 150.901C269.494 148.68 267.693 146.879 265.472 146.879C263.251 146.879 261.45 148.68 261.45 150.901C261.45 153.122 263.251 154.923 265.472 154.923Z" fill="white"/>
<path d="M251.899 154.923C254.12 154.923 255.921 153.122 255.921 150.901C255.921 148.68 254.12 146.879 251.899 146.879C249.678 146.879 247.877 148.68 247.877 150.901C247.877 153.122 249.678 154.923 251.899 154.923Z" fill="white"/>
<path d="M238.326 154.923C240.547 154.923 242.348 153.122 242.348 150.901C242.348 148.68 240.547 146.879 238.326 146.879C236.105 146.879 234.305 148.68 234.305 150.901C234.305 153.122 236.105 154.923 238.326 154.923Z" fill="white"/>
<path d="M458.498 222.788H0.533711C0.400385 222.788 0.27252 222.735 0.178244 222.641C0.0839689 222.547 0.0310059 222.419 0.0310059 222.285C0.0310059 222.152 0.0839689 222.024 0.178244 221.93C0.27252 221.836 0.400385 221.783 0.533711 221.783H458.498C458.631 221.783 458.759 221.836 458.853 221.93C458.947 222.024 459 222.152 459 222.285C459 222.419 458.947 222.547 458.853 222.641C458.759 222.735 458.631 222.788 458.498 222.788Z" fill="#CACACA"/>
</g>
<defs>
<clipPath id="clip0_1169_19985">
<rect width="458.969" height="222.129" fill="white" transform="translate(0.0307617 0.993164)"/>
</clipPath>
</defs>
</svg>
