<svg width="465" height="251" viewBox="0 0 465 251" fill="none" xmlns="http://www.w3.org/2000/svg">
<g clip-path="url(#clip0_1169_20038)">
<path d="M29.4522 209.622L28.0018 216.899C27.8925 217.455 27.7783 218.021 27.6541 218.583C26.4418 218.331 25.1849 218.402 24.0081 218.786C24.9417 220.12 25.7784 221.52 26.5116 222.974C25.5976 225.79 24.2565 228.393 22.0113 230.276C20.5117 231.505 18.7207 232.327 16.811 232.663C14.9012 232.999 12.9371 232.837 11.1082 232.193L11.1727 231.905C8.75864 227.221 10.07 221.315 13.0702 216.988C14.6005 214.854 16.4135 212.937 18.4597 211.291C20.4863 209.602 22.6769 208.087 24.8476 206.592C25.3351 206.256 25.9115 206.074 26.5032 206.068C27.0948 206.062 27.6749 206.233 28.1691 206.558C28.6634 206.883 29.0495 207.348 29.278 207.894C29.5066 208.44 29.5672 209.041 29.4522 209.622Z" fill="#E4E4E4"/>
<path d="M11.6254 249.702C11.0149 245.255 10.387 240.751 10.8152 236.256C11.1957 232.265 12.4132 228.366 14.8928 225.169C16.2089 223.475 17.8104 222.024 19.6251 220.881C20.0985 220.583 20.5337 221.332 20.0628 221.629C16.9228 223.614 14.4942 226.544 13.127 229.998C11.6169 233.838 11.3745 238.025 11.6368 242.105C11.7943 244.572 12.1276 247.022 12.4639 249.471C12.4909 249.582 12.4746 249.699 12.4183 249.798C12.362 249.897 12.2699 249.971 12.1609 250.005C12.05 250.035 11.9317 250.02 11.8318 249.963C11.7319 249.906 11.6585 249.812 11.6274 249.702L11.6254 249.702Z" fill="#F2F2F2"/>
<path d="M16.865 26.6415C38.1434 26.2715 59.424 26.2183 80.707 26.482C101.987 26.7473 123.26 27.3308 144.525 28.2326C156.458 28.7386 168.386 29.3449 180.31 30.0513C181.268 30.108 181.264 28.6176 180.31 28.5612C159.065 27.304 137.805 26.3634 116.53 25.7392C95.2575 25.1167 73.9789 24.8125 52.6942 24.8266C40.7505 24.8345 28.8074 24.9428 16.865 25.1513C15.9072 25.168 15.9042 26.6582 16.865 26.6415V26.6415Z" fill="#E6E6E6"/>
<path d="M165.155 17.2974L174.459 16.6049C175.41 16.5342 175.418 15.0434 174.459 15.1147L165.155 15.8072C164.204 15.878 164.197 17.3687 165.155 17.2974Z" fill="#E6E6E6"/>
<path d="M165.155 26.2389L174.459 25.5464C175.41 25.4757 175.418 23.9849 174.459 24.0563L165.155 24.7487C164.204 24.8195 164.197 26.3102 165.155 26.2389Z" fill="#E6E6E6"/>
<path d="M164.456 22.1554L177.685 23.3573C178.639 23.444 178.634 21.9533 177.685 21.8671L164.456 20.6653C163.501 20.5785 163.507 22.0692 164.456 22.1554Z" fill="#E6E6E6"/>
<path d="M22.3713 15.2935C21.7243 15.2895 21.0904 15.4761 20.5487 15.8299C20.0069 16.1837 19.5813 16.6891 19.3248 17.2832C19.038 17.8646 18.9494 18.524 19.0727 19.1605C19.196 19.797 19.5244 20.3756 20.0077 20.8078C20.4619 21.1943 21.0068 21.4594 21.5913 21.5781C22.1758 21.6968 22.7809 21.6655 23.35 21.4869C23.932 21.2836 24.4367 20.9049 24.7946 20.403C25.1525 19.901 25.346 19.3005 25.3485 18.684C25.3745 18.0001 25.1892 17.3247 24.8179 16.7498C24.4465 16.1748 23.9071 15.7282 23.2729 15.4707C23.0824 15.4189 22.8791 15.4446 22.7075 15.5421C22.5358 15.6396 22.4096 15.801 22.3564 15.9911C22.3094 16.1814 22.3372 16.3826 22.434 16.5531C22.5308 16.7236 22.6892 16.8505 22.8768 16.9076C23.0066 16.9578 22.7582 16.8438 22.8794 16.9099C22.9293 16.937 22.9801 16.9616 23.029 16.9906C23.0706 17.0152 23.1105 17.0422 23.1509 17.0686C23.29 17.1594 23.0831 17.002 23.172 17.0836C23.2491 17.1543 23.3254 17.2234 23.3955 17.3015C23.422 17.331 23.5258 17.4131 23.4451 17.3557C23.3834 17.3118 23.4213 17.3222 23.4451 17.3574C23.4632 17.3842 23.4823 17.4102 23.5001 17.4371C23.5582 17.525 23.611 17.6163 23.6582 17.7105C23.6692 17.7323 23.6792 17.7546 23.6903 17.7763C23.7112 17.8169 23.7414 17.8275 23.6924 17.7766C23.6455 17.728 23.6754 17.7313 23.6921 17.7781C23.7031 17.8089 23.7152 17.8393 23.7259 17.8701C23.7608 17.9706 23.7902 18.073 23.8137 18.1768C23.8247 18.2247 23.8335 18.273 23.8428 18.3212C23.8761 18.4923 23.838 18.2149 23.846 18.342C23.8528 18.4481 23.8606 18.5531 23.8587 18.6596C23.8579 18.7084 23.8558 18.7571 23.8524 18.8057C23.8507 18.8299 23.848 18.8541 23.8464 18.8784C23.8386 18.9953 23.8384 18.8357 23.8547 18.8248C23.8207 18.924 23.7981 19.0268 23.7874 19.1312C23.7741 19.1776 23.7582 19.2229 23.7434 19.2687C23.6915 19.4285 23.792 19.1815 23.7368 19.2908C23.6913 19.3847 23.6405 19.4758 23.5846 19.5639C23.5603 19.6007 23.4687 19.684 23.5436 19.6261C23.6248 19.5632 23.501 19.6715 23.4746 19.6993C23.4407 19.7351 23.4054 19.7697 23.3689 19.803C23.3456 19.8258 23.3209 19.8472 23.295 19.8672C23.2903 19.8648 23.4195 19.7809 23.3499 19.8253C23.2613 19.8818 23.1775 19.9422 23.0842 19.9914C23.0733 19.9971 22.9541 20.0523 22.9546 20.0543C22.9494 20.0342 23.1079 19.9985 22.9991 20.0336C22.9763 20.041 22.9538 20.0499 22.9311 20.0576C22.832 20.091 22.7309 20.1179 22.6284 20.1382C22.6049 20.1429 22.5801 20.1453 22.557 20.1513C22.48 20.1712 22.6306 20.1396 22.6351 20.1422C22.5782 20.1397 22.5212 20.1448 22.4656 20.1572C22.3598 20.1633 22.2539 20.1632 22.1482 20.1572C22.1237 20.1558 22.0993 20.1533 22.0748 20.1519C22.0181 20.1486 21.9764 20.1077 22.0519 20.1521C22.1102 20.1864 22.1054 20.1614 22.0538 20.1518C22.0296 20.1474 22.0053 20.1436 21.9812 20.1391C21.8765 20.1195 21.7731 20.0941 21.6712 20.0632C21.6164 20.0465 21.5627 20.027 21.5087 20.0081C21.4851 20.0013 21.4622 19.9925 21.4401 19.9818C21.4398 19.9756 21.5795 20.0485 21.5057 20.0088C21.4126 19.9586 21.3164 19.9165 21.2255 19.8617C21.177 19.8325 21.1304 19.8007 21.0833 19.7693C21.0625 19.7568 21.0428 19.7427 21.0243 19.7271C21.0259 19.7208 21.1398 19.8264 21.08 19.7694C21.0044 19.6973 20.9234 19.6328 20.8518 19.556C20.8354 19.5384 20.8199 19.52 20.8036 19.5025L20.7878 19.4844C20.7474 19.435 20.7466 19.4353 20.7855 19.4851C20.825 19.4967 20.8232 19.5401 20.7857 19.4838C20.7724 19.4637 20.7582 19.4442 20.7449 19.4242C20.6843 19.3379 20.6327 19.2458 20.5908 19.1492C20.5945 19.1463 20.6554 19.3284 20.6088 19.191C20.6 19.165 20.5901 19.1395 20.5815 19.1135C20.5644 19.0618 20.5493 19.0097 20.5363 18.9569C20.5234 18.9046 20.5168 18.8507 20.5038 18.7986C20.4819 18.7109 20.5166 18.8679 20.5126 18.8639C20.5002 18.8517 20.5055 18.7756 20.5046 18.7574C20.4986 18.6404 20.5119 18.527 20.514 18.4108C20.5156 18.3207 20.5066 18.4809 20.5047 18.4762C20.5052 18.4493 20.5099 18.4225 20.5188 18.3971C20.5323 18.3358 20.5449 18.2746 20.5614 18.214C20.5803 18.1446 20.6021 18.076 20.6267 18.0083C20.6359 17.983 20.6471 17.958 20.6557 17.9325C20.687 17.8389 20.5936 18.0455 20.6451 17.9611C20.716 17.845 20.7688 17.7194 20.8441 17.6048C20.8619 17.5776 20.9703 17.4262 20.9128 17.5027C20.8555 17.5788 20.9717 17.4345 20.9937 17.41C21.0851 17.3082 21.1925 17.2247 21.2872 17.1272C21.3432 17.0695 21.2481 17.1556 21.2425 17.1597C21.2718 17.1387 21.3005 17.117 21.3301 17.0965C21.3819 17.0609 21.4349 17.0272 21.4891 16.9954C21.5503 16.9596 21.6194 16.9329 21.6786 16.895C21.7486 16.8502 21.6251 16.9146 21.6229 16.916C21.6548 16.9001 21.6883 16.8874 21.7227 16.8779C21.7804 16.8575 22.0313 16.7492 22.0839 16.7831C22.0816 16.7815 21.8934 16.7982 22.0455 16.7884C22.0815 16.7861 22.1173 16.7826 22.1533 16.7811C22.2261 16.7781 22.2986 16.7799 22.3714 16.7837C22.5686 16.7824 22.7573 16.7035 22.8968 16.5641C23.0362 16.4246 23.1152 16.2358 23.1164 16.0386C23.1122 15.8423 23.0324 15.6553 22.8935 15.5164C22.7547 15.3776 22.5676 15.2978 22.3714 15.2935L22.3713 15.2935Z" fill="#E6E6E6"/>
<path d="M32.803 15.2935C32.1559 15.2895 31.522 15.4761 30.9803 15.8299C30.4386 16.1837 30.0129 16.6891 29.7565 17.2832C29.4696 17.8646 29.3811 18.524 29.5044 19.1605C29.6277 19.797 29.9561 20.3756 30.4393 20.8078C30.8936 21.1943 31.4385 21.4594 32.023 21.5781C32.6075 21.6968 33.2126 21.6655 33.7817 21.4869C34.3637 21.2836 34.8683 20.9049 35.2262 20.403C35.5841 19.901 35.7777 19.3005 35.7802 18.684C35.8062 18.0001 35.6209 17.3247 35.2495 16.7498C34.8781 16.1748 34.3387 15.7282 33.7046 15.4707C33.514 15.4189 33.3108 15.4446 33.1391 15.5421C32.9674 15.6396 32.8412 15.801 32.788 15.9911C32.741 16.1814 32.7688 16.3826 32.8656 16.5531C32.9624 16.7236 33.1209 16.8505 33.3084 16.9076C33.4383 16.9578 33.1898 16.8438 33.311 16.9099C33.3609 16.937 33.4117 16.9616 33.4606 16.9906C33.5023 17.0152 33.5421 17.0422 33.5826 17.0686C33.7217 17.1594 33.5147 17.002 33.6036 17.0836C33.6807 17.1543 33.7571 17.2234 33.8271 17.3015C33.8536 17.331 33.9575 17.4131 33.8768 17.3557C33.8151 17.3118 33.853 17.3222 33.8768 17.3574C33.8948 17.3842 33.9139 17.4102 33.9317 17.4371C33.9898 17.525 34.0426 17.6163 34.0899 17.7105C34.1008 17.7323 34.1108 17.7546 34.122 17.7763C34.1428 17.8169 34.1731 17.8275 34.124 17.7766C34.0772 17.728 34.107 17.7313 34.1238 17.7781C34.1348 17.8089 34.1468 17.8393 34.1575 17.8701C34.1925 17.9706 34.2218 18.073 34.2454 18.1768C34.2563 18.2247 34.2651 18.273 34.2745 18.3212C34.3078 18.4923 34.2696 18.2149 34.2777 18.342C34.2844 18.4481 34.2922 18.5531 34.2904 18.6596C34.2895 18.7084 34.2874 18.7571 34.284 18.8057C34.2823 18.8299 34.2796 18.8541 34.278 18.8784C34.2703 18.9953 34.27 18.8357 34.2864 18.8248C34.2523 18.924 34.2297 19.0268 34.219 19.1312C34.2057 19.1776 34.1898 19.2229 34.175 19.2687C34.1232 19.4285 34.2237 19.1815 34.1684 19.2908C34.1229 19.3847 34.0721 19.4758 34.0162 19.5639C33.9919 19.6007 33.9004 19.684 33.9752 19.6261C34.0565 19.5632 33.9327 19.6715 33.9062 19.6993C33.8723 19.7351 33.8371 19.7697 33.8006 19.803C33.7772 19.8258 33.7525 19.8472 33.7267 19.8672C33.7219 19.8648 33.8511 19.7809 33.7815 19.8253C33.693 19.8818 33.6091 19.9422 33.5158 19.9914C33.505 19.9971 33.3857 20.0523 33.3862 20.0543C33.381 20.0342 33.5395 19.9985 33.4307 20.0336C33.4079 20.041 33.3855 20.0499 33.3627 20.0576C33.2637 20.091 33.1626 20.1179 33.06 20.1382C33.0366 20.1429 33.0118 20.1453 32.9886 20.1513C32.9116 20.1712 33.0622 20.1396 33.0668 20.1422C33.0098 20.1397 32.9528 20.1448 32.8972 20.1572C32.7915 20.1633 32.6855 20.1632 32.5798 20.1572C32.5553 20.1558 32.5309 20.1533 32.5065 20.1519C32.4497 20.1486 32.408 20.1077 32.4836 20.1521C32.5419 20.1864 32.537 20.1614 32.4854 20.1518C32.4612 20.1474 32.437 20.1436 32.4128 20.1391C32.3082 20.1195 32.2047 20.0941 32.1029 20.0632C32.0481 20.0465 31.9944 20.027 31.9403 20.0081C31.9168 20.0013 31.8938 19.9925 31.8718 19.9818C31.8714 19.9756 32.0111 20.0485 31.9374 20.0088C31.8443 19.9586 31.748 19.9165 31.6572 19.8617C31.6087 19.8325 31.5621 19.8007 31.5149 19.7693C31.4942 19.7568 31.4745 19.7427 31.456 19.7271C31.4575 19.7208 31.5715 19.8264 31.5117 19.7694C31.436 19.6973 31.3551 19.6328 31.2834 19.556C31.267 19.5384 31.2515 19.52 31.2352 19.5025L31.2194 19.4844C31.179 19.435 31.1783 19.4353 31.2171 19.4851C31.2566 19.4967 31.2548 19.5401 31.2174 19.4838C31.204 19.4637 31.1898 19.4442 31.1765 19.4242C31.116 19.3379 31.0644 19.2458 31.0225 19.1492C31.0261 19.1463 31.087 19.3284 31.0405 19.191C31.0317 19.165 31.0218 19.1395 31.0131 19.1135C30.996 19.0618 30.9809 19.0097 30.9679 18.9569C30.9551 18.9046 30.9484 18.8507 30.9355 18.7986C30.9136 18.7109 30.9482 18.8679 30.9443 18.8639C30.9319 18.8517 30.9372 18.7756 30.9362 18.7574C30.9303 18.6404 30.9436 18.527 30.9457 18.4108C30.9473 18.3207 30.9382 18.4809 30.9363 18.4762C30.9368 18.4493 30.9416 18.4225 30.9505 18.3971C30.964 18.3358 30.9765 18.2746 30.993 18.214C31.0119 18.1446 31.0337 18.076 31.0583 18.0083C31.0675 17.983 31.0787 17.958 31.0873 17.9325C31.1187 17.8389 31.0252 18.0455 31.0767 17.9611C31.1476 17.845 31.2004 17.7194 31.2757 17.6048C31.2935 17.5776 31.402 17.4262 31.3444 17.5027C31.2871 17.5788 31.4033 17.4345 31.4253 17.41C31.5167 17.3082 31.6242 17.2247 31.7188 17.1272C31.7748 17.0695 31.6797 17.1556 31.6741 17.1597C31.7034 17.1387 31.7321 17.117 31.7618 17.0965C31.8135 17.0609 31.8665 17.0272 31.9208 16.9954C31.9819 16.9596 32.051 16.9329 32.1103 16.895C32.1802 16.8502 32.0567 16.9146 32.0545 16.916C32.0865 16.9001 32.1199 16.8874 32.1543 16.8779C32.212 16.8575 32.4629 16.7492 32.5156 16.7831C32.5132 16.7815 32.3251 16.7982 32.4772 16.7884C32.5131 16.7861 32.5489 16.7826 32.5849 16.7811C32.6577 16.7781 32.7303 16.7799 32.803 16.7837C33.0002 16.7824 33.189 16.7035 33.3284 16.5641C33.4679 16.4246 33.5468 16.2358 33.5481 16.0386C33.5439 15.8423 33.464 15.6553 33.3252 15.5164C33.1864 15.3776 32.9993 15.2978 32.803 15.2935L32.803 15.2935Z" fill="#E6E6E6"/>
<path d="M43.2336 15.2935C42.5866 15.2895 41.9527 15.4761 41.411 15.8299C40.8692 16.1837 40.4436 16.6891 40.1872 17.2832C39.9003 17.8646 39.8117 18.524 39.935 19.1605C40.0583 19.797 40.3867 20.3756 40.87 20.8078C41.3243 21.1943 41.8691 21.4594 42.4536 21.5781C43.0381 21.6968 43.6432 21.6655 44.2123 21.4869C44.7943 21.2836 45.299 20.9049 45.6569 20.403C46.0148 19.901 46.2083 19.3005 46.2108 18.684C46.2368 18.0001 46.0515 17.3247 45.6802 16.7498C45.3088 16.1748 44.7694 15.7282 44.1352 15.4707C43.9447 15.4189 43.7414 15.4446 43.5698 15.5421C43.3981 15.6396 43.2719 15.801 43.2187 15.9911C43.1717 16.1814 43.1995 16.3826 43.2963 16.5531C43.3931 16.7236 43.5516 16.8505 43.7391 16.9076C43.8689 16.9578 43.6205 16.8438 43.7417 16.9099C43.7916 16.937 43.8424 16.9616 43.8913 16.9906C43.9329 17.0152 43.9728 17.0422 44.0133 17.0686C44.1523 17.1594 43.9454 17.002 44.0343 17.0836C44.1114 17.1543 44.1877 17.2234 44.2578 17.3015C44.2843 17.331 44.3881 17.4131 44.3074 17.3557C44.2457 17.3118 44.2836 17.3222 44.3074 17.3574C44.3255 17.3842 44.3446 17.4102 44.3624 17.4371C44.4205 17.525 44.4733 17.6163 44.5205 17.7105C44.5315 17.7323 44.5415 17.7546 44.5526 17.7763C44.5735 17.8169 44.6037 17.8275 44.5547 17.7766C44.5078 17.728 44.5377 17.7313 44.5544 17.7781C44.5654 17.8089 44.5775 17.8393 44.5882 17.8701C44.6231 17.9706 44.6525 18.073 44.6761 18.1768C44.687 18.2247 44.6958 18.273 44.7051 18.3212C44.7384 18.4923 44.7003 18.2149 44.7083 18.342C44.7151 18.4481 44.7229 18.5531 44.721 18.6596C44.7202 18.7084 44.7181 18.7571 44.7147 18.8057C44.713 18.8299 44.7103 18.8541 44.7087 18.8784C44.7009 18.9953 44.7007 18.8357 44.717 18.8248C44.683 18.924 44.6604 19.0268 44.6497 19.1312C44.6364 19.1776 44.6205 19.2229 44.6057 19.2687C44.5538 19.4285 44.6543 19.1815 44.5991 19.2908C44.5536 19.3847 44.5028 19.4758 44.4469 19.5639C44.4226 19.6007 44.331 19.684 44.4059 19.6261C44.4871 19.5632 44.3633 19.6715 44.3369 19.6993C44.303 19.7351 44.2677 19.7697 44.2312 19.803C44.2079 19.8258 44.1832 19.8472 44.1573 19.8672C44.1526 19.8648 44.2818 19.7809 44.2122 19.8253C44.1236 19.8818 44.0398 19.9422 43.9465 19.9914C43.9356 19.9971 43.8164 20.0523 43.8169 20.0543C43.8117 20.0342 43.9702 19.9985 43.8614 20.0336C43.8386 20.041 43.8161 20.0499 43.7934 20.0576C43.6943 20.091 43.5932 20.1179 43.4907 20.1382C43.4672 20.1429 43.4424 20.1453 43.4193 20.1513C43.3423 20.1712 43.4929 20.1396 43.4974 20.1422C43.4405 20.1397 43.3835 20.1448 43.3279 20.1572C43.2222 20.1633 43.1162 20.1632 43.0105 20.1572C42.986 20.1558 42.9616 20.1533 42.9371 20.1519C42.8804 20.1486 42.8387 20.1077 42.9143 20.1521C42.9725 20.1864 42.9677 20.1614 42.9161 20.1518C42.8919 20.1474 42.8676 20.1436 42.8435 20.1391C42.7389 20.1195 42.6354 20.0941 42.5335 20.0632C42.4787 20.0465 42.425 20.027 42.371 20.0081C42.3474 20.0013 42.3245 19.9925 42.3024 19.9818C42.3021 19.9756 42.4418 20.0485 42.368 20.0088C42.275 19.9586 42.1787 19.9165 42.0878 19.8617C42.0393 19.8325 41.9927 19.8007 41.9456 19.7693C41.9249 19.7568 41.9051 19.7427 41.8866 19.7271C41.8882 19.7208 42.0021 19.8264 41.9423 19.7694C41.8667 19.6973 41.7857 19.6328 41.7141 19.556C41.6977 19.5384 41.6822 19.52 41.6659 19.5025L41.6501 19.4844C41.6097 19.435 41.6089 19.4353 41.6478 19.4851C41.6873 19.4967 41.6855 19.5401 41.648 19.4838C41.6347 19.4637 41.6205 19.4442 41.6072 19.4242C41.5467 19.3379 41.4951 19.2458 41.4532 19.1492C41.4568 19.1463 41.5177 19.3284 41.4711 19.191C41.4623 19.165 41.4524 19.1395 41.4438 19.1135C41.4267 19.0618 41.4116 19.0097 41.3986 18.9569C41.3857 18.9046 41.3791 18.8507 41.3661 18.7986C41.3442 18.7109 41.3789 18.8679 41.375 18.8639C41.3625 18.8517 41.3678 18.7756 41.3669 18.7574C41.3609 18.6404 41.3742 18.527 41.3763 18.4108C41.378 18.3207 41.3689 18.4809 41.367 18.4762C41.3675 18.4493 41.3722 18.4225 41.3811 18.3971C41.3946 18.3358 41.4072 18.2746 41.4237 18.214C41.4426 18.1446 41.4644 18.076 41.489 18.0083C41.4982 17.983 41.5094 17.958 41.518 17.9325C41.5493 17.8389 41.4559 18.0455 41.5074 17.9611C41.5783 17.845 41.6311 17.7194 41.7064 17.6048C41.7242 17.5776 41.8326 17.4262 41.7751 17.5027C41.7178 17.5788 41.834 17.4345 41.856 17.41C41.9474 17.3082 42.0548 17.2247 42.1495 17.1272C42.2055 17.0695 42.1104 17.1556 42.1048 17.1597C42.1341 17.1387 42.1628 17.117 42.1924 17.0965C42.2442 17.0609 42.2972 17.0272 42.3514 16.9954C42.4126 16.9596 42.4817 16.9329 42.5409 16.895C42.6109 16.8502 42.4874 16.9146 42.4852 16.916C42.5171 16.9001 42.5506 16.8874 42.585 16.8779C42.6427 16.8575 42.8936 16.7492 42.9463 16.7831C42.9439 16.7815 42.7557 16.7982 42.9078 16.7884C42.9438 16.7861 42.9796 16.7826 43.0156 16.7811C43.0884 16.7781 43.1609 16.7799 43.2337 16.7837C43.4309 16.7824 43.6196 16.7035 43.7591 16.5641C43.8985 16.4246 43.9775 16.2358 43.9788 16.0386C43.9745 15.8423 43.8947 15.6553 43.7558 15.5164C43.617 15.3776 43.4299 15.2978 43.2337 15.2935L43.2336 15.2935Z" fill="#E6E6E6"/>
<path d="M193.927 180.311H11.1791C8.86825 180.309 6.65275 179.39 5.0187 177.756C3.38465 176.122 2.46549 173.906 2.46289 171.595V8.71622C2.46548 6.40533 3.38463 4.18983 5.01867 2.55578C6.65272 0.921735 8.86822 0.00259133 11.1791 0H193.927C196.238 0.00259133 198.453 0.921735 200.087 2.55578C201.721 4.18983 202.641 6.40533 202.643 8.71622V171.595C202.641 173.906 201.721 176.122 200.087 177.756C198.453 179.39 196.238 180.309 193.927 180.311ZM11.1791 0.99345C9.13162 0.99578 7.16866 1.81017 5.72086 3.25797C4.27306 4.70577 3.45867 6.66873 3.45634 8.71622V171.595C3.45872 173.643 4.27315 175.606 5.72094 177.053C7.16873 178.501 9.13166 179.315 11.1791 179.318H193.927C195.974 179.315 197.937 178.501 199.385 177.053C200.833 175.606 201.647 173.643 201.65 171.595V8.71622C201.647 6.66873 200.833 4.70577 199.385 3.25797C197.937 1.81017 195.974 0.995781 193.927 0.99345H11.1791Z" fill="#E6E6E6"/>
<path d="M10.8765 110.823L75.1423 110.627L139.08 110.433L175.148 110.323C175.341 110.316 175.524 110.235 175.658 110.096C175.793 109.957 175.868 109.771 175.868 109.578C175.868 109.385 175.793 109.199 175.658 109.06C175.524 108.921 175.341 108.839 175.148 108.833L110.882 109.028L46.944 109.223L10.8765 109.332C10.6833 109.339 10.5003 109.421 10.3661 109.56C10.2318 109.699 10.1567 109.884 10.1567 110.077C10.1567 110.271 10.2318 110.456 10.3661 110.595C10.5003 110.734 10.6833 110.816 10.8765 110.823Z" fill="#E6E6E6"/>
<path d="M43.2974 109.614L43.6948 86.1504C43.7111 85.1911 42.2209 85.1909 42.2046 86.1504L41.8073 109.614C41.791 110.573 43.2812 110.574 43.2974 109.614Z" fill="#E6E6E6"/>
<path d="M74.0122 109.868L74.9806 80.3754L75.2572 71.9489C75.2887 70.9898 73.7985 70.9909 73.7671 71.9489L72.7987 101.442L72.522 109.868C72.4905 110.827 73.9807 110.826 74.0122 109.868Z" fill="#E6E6E6"/>
<path d="M104.646 57.9685C104.061 68.4146 102.981 99.2264 102.396 109.673C102.343 110.631 103.833 110.628 103.887 109.673C104.471 99.2264 105.552 68.4146 106.136 57.9685C106.189 57.0103 104.699 57.0133 104.646 57.9685Z" fill="#E6E6E6"/>
<path d="M135.129 99.1903L134.946 109.231C134.929 110.19 136.419 110.19 136.437 109.231C136.652 97.3723 137.206 97.7589 137.267 94.4121C137.284 93.4528 135.794 93.4527 135.776 94.4121C135.776 94.4121 135.345 87.332 135.129 99.1903Z" fill="#E6E6E6"/>
<path d="M164.989 72.8143L165.157 100.983L165.205 109.049C165.212 109.242 165.293 109.425 165.432 109.559C165.571 109.694 165.757 109.769 165.95 109.769C166.144 109.769 166.329 109.694 166.468 109.559C166.607 109.425 166.689 109.242 166.695 109.049L166.527 80.8802L166.479 72.8143C166.472 72.6212 166.391 72.4382 166.252 72.3039C166.113 72.1697 165.927 72.0946 165.734 72.0946C165.54 72.0946 165.355 72.1697 165.216 72.3039C165.077 72.4382 164.995 72.6212 164.989 72.8143Z" fill="#E6E6E6"/>
<path d="M10.9965 109.984C9.763 106.594 12.5435 103.334 15.4006 101.869C18.8235 100.114 22.7612 99.7163 26.2204 98.0244C31.3776 95.502 35.1338 90.9751 38.4762 86.4438C41.9165 81.78 45.0642 76.7744 49.4356 72.8993C51.7391 70.8118 54.4597 69.2374 57.4173 68.2802C61.1439 67.1172 65.0961 67.0375 68.9467 67.5061C76.9036 68.4746 84.2797 71.761 91.957 73.8498C99.1954 75.8191 107.171 76.9265 114.275 73.8641C117.885 72.3082 120.837 69.6988 124.007 67.4406C127.075 65.2323 130.506 63.5774 134.144 62.5506C141.276 60.5674 149.065 61.0969 155.705 64.4495C161.808 67.4917 166.641 72.5922 169.35 78.8508C172.498 86.3705 172.088 94.7737 171.06 102.689C170.794 104.734 170.477 106.774 170.158 108.812C170.01 109.75 171.446 110.154 171.595 109.208C172.875 101.046 174.152 92.6261 172.558 84.4131C171.181 77.2417 167.237 70.818 161.466 66.344C155.67 61.8578 148.465 59.5839 141.144 59.9306C137.308 60.1086 133.531 60.9486 129.981 62.4134C126.295 63.9378 123.175 66.1972 120.005 68.5746C116.746 71.019 113.386 73.0409 109.34 73.8381C105.415 74.6114 101.332 74.3215 97.424 73.5914C89.3609 72.0849 81.8454 68.6315 73.8508 66.8621C66.4438 65.2227 58.451 65.0589 51.8183 69.2433C46.7163 72.4621 43.1111 77.4592 39.6512 82.2843C36.2216 87.0672 32.7486 92.1817 27.7337 95.449C24.6745 97.442 21.2356 98.1775 17.8134 99.2983C14.3824 100.422 11.0886 102.318 9.68961 105.833C9.08667 107.281 9.04034 108.9 9.55954 110.38C9.8849 111.274 11.3255 110.888 10.9965 109.984V109.984Z" fill="#E6E6E6"/>
<path d="M42.803 82.906L42.8008 82.9071L42.8052 82.906H42.803Z" fill="#E6E6E6"/>
<path d="M45.3876 81.5349C45.0432 80.925 44.4937 80.457 43.8368 80.2138C43.18 79.9707 42.4581 79.9683 41.7997 80.207C41.4723 80.3265 41.1723 80.5104 40.9173 80.7479C40.6622 80.9853 40.4574 81.2715 40.3149 81.5895C40.2864 81.6571 40.2697 81.7281 40.2464 81.7974C40.2141 81.8496 40.1753 81.8967 40.1464 81.9513C39.8376 82.5668 39.753 83.2706 39.9073 83.9417C40.0615 84.6128 40.445 85.2091 40.9916 85.6278C41.5382 86.0466 42.2138 86.2616 42.9019 86.2359C43.59 86.2102 44.2476 85.9454 44.7614 85.487C45.3014 84.9988 45.6581 84.3405 45.772 83.6215C45.8859 82.9025 45.7502 82.1661 45.3876 81.5349ZM43.5212 82.8004C43.5274 82.838 43.5251 82.8726 43.5212 82.8004V82.8004ZM43.3315 82.369C43.3242 82.3606 43.3252 82.3616 43.3315 82.369V82.369ZM42.4954 82.7053C42.4842 82.688 42.4831 82.6852 42.4954 82.7053V82.7053ZM42.6936 82.8733C42.7408 82.8894 42.7221 82.886 42.6936 82.8733V82.8733ZM42.7821 82.9155L42.8017 82.9065C42.7969 82.9069 42.7921 82.906 42.7878 82.9037L42.7884 82.9036L42.8038 82.9055L42.8066 82.9042L42.7978 82.9022C42.8055 82.9019 42.8063 82.903 42.8068 82.9042C42.8955 82.8636 42.8355 82.8831 42.7841 82.899L42.7807 82.8982C42.7486 82.8819 42.7141 82.8709 42.6785 82.8655C42.6752 82.8636 42.6713 82.8623 42.6686 82.8603C42.64 82.84 42.4958 82.7274 42.6296 82.8454C42.6005 82.8197 42.5717 82.7945 42.5443 82.7667C42.5282 82.7502 42.5136 82.7322 42.5006 82.713C42.4831 82.6829 42.4661 82.6525 42.4496 82.6219L42.4471 82.6054C42.4449 82.5917 42.4433 82.586 42.4414 82.5777C42.4423 82.5692 42.4437 82.56 42.445 82.5511C42.455 82.5244 42.4613 82.4963 42.4639 82.4679L42.4697 82.4606C42.4911 82.4307 42.5098 82.3959 42.5302 82.3648C42.4223 82.5289 42.5725 82.3467 42.5837 82.3237C42.5856 82.3197 42.5823 82.3219 42.5831 82.3192C42.5875 82.3167 42.5861 82.3184 42.5914 82.3153C42.6249 82.2956 42.6566 82.2736 42.6906 82.2548C42.731 82.2324 42.8905 82.1871 42.7251 82.2344C42.7627 82.2236 42.7987 82.2101 42.8367 82.2002C42.8436 82.1984 42.8992 82.1906 42.9292 82.1852C42.9556 82.1845 42.9811 82.1837 42.9838 82.1838C42.9962 82.1839 43.0085 82.1854 43.0209 82.186C42.9935 82.1896 43.1151 82.2159 43.1512 82.2215C43.1564 82.2256 43.1591 82.2282 43.1662 82.2334C43.1967 82.2557 43.2338 82.2755 43.2661 82.2964C43.122 82.2032 43.2679 82.3038 43.2955 82.3313C43.3119 82.3477 43.3271 82.3653 43.3426 82.3826C43.3568 82.3991 43.3696 82.4167 43.381 82.4353C43.4046 82.4786 43.4297 82.5224 43.4545 82.565L43.4614 82.5759C43.4613 82.5773 43.4612 82.5787 43.4612 82.5801C43.4742 82.6492 43.4933 82.717 43.5183 82.7827C43.5195 82.7882 43.5204 82.7938 43.5211 82.7995C43.5234 82.8373 43.5266 82.875 43.5266 82.9131L43.5263 82.9208C43.4116 82.861 43.2842 82.8293 43.1548 82.8284C43.0254 82.8274 42.8977 82.8573 42.7821 82.9155H42.7821Z" fill="#E6E6E6"/>
<path d="M42.8081 82.905C42.8108 82.9059 42.8082 82.9057 42.8076 82.9059L42.8081 82.905Z" fill="#E6E6E6"/>
<path d="M42.8066 82.905L42.8077 82.9054L42.8066 82.905Z" fill="#E6E6E6"/>
<path d="M42.8077 82.9058L42.8057 82.9061C42.8082 82.9063 42.8073 82.9059 42.8077 82.9058Z" fill="#E6E6E6"/>
<path d="M42.8066 82.9045L42.8075 82.905L42.8066 82.9045Z" fill="#E6E6E6"/>
<path d="M74.594 68.9977L74.5918 68.9988L74.5962 68.9977H74.594Z" fill="#E6E6E6"/>
<path d="M77.1776 67.6268C76.8332 67.0169 76.2837 66.5488 75.6269 66.3057C74.97 66.0626 74.2482 66.0602 73.5897 66.2989C73.2624 66.4184 72.9623 66.6023 72.7073 66.8397C72.4523 67.0772 72.2474 67.3634 72.1049 67.6813C72.0764 67.7489 72.0597 67.82 72.0365 67.8892C72.0042 67.9414 71.9654 67.9886 71.9364 68.0432C71.6276 68.6586 71.543 69.3625 71.6973 70.0336C71.8516 70.7046 72.235 71.3009 72.7817 71.7197C73.3283 72.1385 74.0038 72.3535 74.6919 72.3278C75.38 72.3021 76.0376 72.0372 76.5514 71.5788C77.0915 71.0907 77.4481 70.4323 77.562 69.7133C77.6759 68.9943 77.5403 68.258 77.1776 67.6268ZM75.3113 68.8923C75.3174 68.9299 75.3152 68.9644 75.3113 68.8923V68.8923ZM75.1216 68.4609C75.1143 68.4525 75.1152 68.4534 75.1216 68.4609V68.4609ZM74.2854 68.7971C74.2742 68.7799 74.2731 68.777 74.2854 68.7971V68.7971ZM74.4836 68.9652C74.5308 68.9812 74.5121 68.9779 74.4836 68.9652V68.9652ZM74.5721 69.0073L74.5917 68.9983C74.5869 68.9988 74.5821 68.9978 74.5778 68.9956L74.5784 68.9955L74.5938 68.9974L74.5966 68.9961L74.5878 68.994C74.5955 68.9938 74.5963 68.9948 74.5968 68.996C74.6855 68.9554 74.6255 68.975 74.5741 68.9909L74.5707 68.9901C74.5386 68.9738 74.5041 68.9627 74.4685 68.9573C74.4652 68.9555 74.4613 68.9541 74.4586 68.9522C74.43 68.9318 74.2858 68.8192 74.4196 68.9373C74.3905 68.9116 74.3617 68.8863 74.3343 68.8586C74.3182 68.842 74.3036 68.824 74.2906 68.8049C74.2731 68.7748 74.2561 68.7444 74.2396 68.7138L74.2371 68.6972C74.2349 68.6835 74.2333 68.6778 74.2315 68.6696C74.2323 68.661 74.2337 68.6519 74.235 68.643C74.245 68.6162 74.2514 68.5882 74.2539 68.5597L74.2597 68.5524C74.2811 68.5226 74.2998 68.4878 74.3203 68.4567C74.2123 68.6207 74.3625 68.4386 74.3737 68.4155C74.3756 68.4116 74.3723 68.4137 74.3731 68.411C74.3775 68.4086 74.3761 68.4103 74.3814 68.4072C74.4149 68.3875 74.4466 68.3655 74.4806 68.3467C74.5211 68.3242 74.6805 68.279 74.5151 68.3262C74.5527 68.3155 74.5888 68.3019 74.6267 68.292C74.6336 68.2902 74.6893 68.2824 74.7192 68.277C74.7456 68.2764 74.7711 68.2756 74.7738 68.2756C74.7862 68.2758 74.7985 68.2773 74.8109 68.2778C74.7835 68.2815 74.9051 68.3078 74.9412 68.3133C74.9464 68.3174 74.9491 68.3201 74.9562 68.3252C74.9867 68.3476 75.0238 68.3674 75.0561 68.3882C74.912 68.2951 75.058 68.3956 75.0855 68.4231C75.1019 68.4396 75.1171 68.4572 75.1326 68.4745C75.1468 68.491 75.1596 68.5086 75.171 68.5271C75.1946 68.5704 75.2197 68.6142 75.2446 68.6568L75.2514 68.6677C75.2513 68.6691 75.2512 68.6706 75.2512 68.672C75.2642 68.7411 75.2833 68.8088 75.3083 68.8745C75.3095 68.8801 75.3105 68.8857 75.3111 68.8914C75.3134 68.9292 75.3166 68.9669 75.3167 69.005L75.3163 69.0126C75.2016 68.9528 75.0742 68.9211 74.9449 68.9202C74.8155 68.9193 74.6877 68.9492 74.5721 69.0073Z" fill="#E6E6E6"/>
<path d="M74.5977 68.9974L74.5957 68.9978C74.5983 68.998 74.5973 68.9976 74.5977 68.9974Z" fill="#E6E6E6"/>
<path d="M74.5967 68.9962L74.5976 68.9966L74.5967 68.9962Z" fill="#E6E6E6"/>
<path d="M74.5981 68.9966C74.6008 68.9975 74.5983 68.9973 74.5977 68.9976L74.5981 68.9966Z" fill="#E6E6E6"/>
<path d="M74.5977 68.9964L74.5988 68.9967L74.5977 68.9964Z" fill="#E6E6E6"/>
<path d="M105.394 75.9502L105.395 75.9506L105.394 75.9502Z" fill="#E6E6E6"/>
<path d="M107.974 53.7187C107.63 53.1088 107.081 52.6407 106.424 52.3976C105.767 52.1545 105.045 52.1521 104.387 52.3908C104.059 52.5103 103.759 52.6942 103.504 52.9316C103.249 53.1691 103.044 53.4553 102.902 53.7733C102.873 53.8408 102.857 53.9119 102.833 53.9812C102.801 54.0334 102.762 54.0805 102.733 54.1351C102.424 54.7505 102.34 55.4544 102.494 56.1255C102.648 56.7966 103.032 57.3928 103.579 57.8116C104.125 58.2304 104.801 58.4454 105.489 58.4197C106.177 58.394 106.834 58.1291 107.348 57.6708C107.888 57.1826 108.245 56.5243 108.359 55.8053C108.473 55.0863 108.337 54.3499 107.974 53.7187ZM106.108 54.9842C106.114 55.0218 106.112 55.0564 106.108 54.9842V54.9842ZM105.918 54.5528C105.911 54.5444 105.912 54.5453 105.918 54.5528V54.5528ZM105.082 54.889C105.071 54.8718 105.07 54.8689 105.082 54.889V54.889ZM105.28 55.0571C105.328 55.0732 105.309 55.0698 105.28 55.0571V55.0571ZM105.369 55.0993L105.389 55.0903C105.384 55.0907 105.379 55.0898 105.375 55.0875L105.375 55.0874L105.391 55.0893L105.394 55.088L105.385 55.086C105.392 55.0857 105.393 55.0867 105.394 55.0879C105.482 55.0474 105.422 55.0669 105.371 55.0828L105.368 55.082C105.335 55.0657 105.301 55.0547 105.265 55.0492C105.262 55.0474 105.258 55.046 105.255 55.0441C105.227 55.0238 105.083 54.9111 105.216 55.0292C105.187 55.0035 105.159 54.9783 105.131 54.9505C105.115 54.9339 105.1 54.916 105.088 54.8968C105.07 54.8667 105.053 54.8363 105.036 54.8057L105.034 54.7892C105.032 54.7754 105.03 54.7697 105.028 54.7615C105.029 54.753 105.031 54.7438 105.032 54.7349C105.042 54.7081 105.048 54.6801 105.051 54.6516L105.057 54.6444C105.078 54.6145 105.097 54.5797 105.117 54.5486C105.009 54.7126 105.159 54.5305 105.171 54.5075C105.172 54.5035 105.169 54.5057 105.17 54.5029C105.174 54.5005 105.173 54.5022 105.178 54.4991C105.212 54.4794 105.243 54.4574 105.277 54.4386C105.318 54.4161 105.477 54.3709 105.312 54.4181C105.35 54.4074 105.386 54.3939 105.424 54.3839C105.43 54.3821 105.486 54.3744 105.516 54.369C105.542 54.3683 105.568 54.3675 105.571 54.3675C105.583 54.3677 105.595 54.3692 105.608 54.3697C105.58 54.3734 105.702 54.3997 105.738 54.4053C105.743 54.4093 105.746 54.412 105.753 54.4172C105.784 54.4395 105.821 54.4593 105.853 54.4801C105.709 54.387 105.855 54.4875 105.882 54.5151C105.899 54.5315 105.914 54.5491 105.929 54.5664C105.944 54.5829 105.957 54.6005 105.968 54.619C105.991 54.6623 106.017 54.7061 106.041 54.7487L106.048 54.7597C106.048 54.7611 106.048 54.7625 106.048 54.7639C106.061 54.833 106.08 54.9008 106.105 54.9664C106.106 54.972 106.107 54.9776 106.108 54.9833C106.11 55.0211 106.113 55.0588 106.114 55.0969L106.113 55.1046C105.998 55.0447 105.871 55.0131 105.742 55.0121C105.612 55.0112 105.485 55.0411 105.369 55.0993Z" fill="#E6E6E6"/>
<path d="M105.39 75.952L105.388 75.9531L105.393 75.952H105.39Z" fill="#E6E6E6"/>
<path d="M105.395 75.9507L105.396 75.951L105.395 75.9507Z" fill="#E6E6E6"/>
<path d="M105.395 75.9515L105.393 75.9518C105.396 75.9521 105.395 75.9516 105.395 75.9515Z" fill="#E6E6E6"/>
<path d="M105.396 75.9507C105.398 75.9515 105.396 75.9514 105.395 75.9516L105.396 75.9507Z" fill="#E6E6E6"/>
<path d="M139.268 91.9663C138.924 91.3564 138.375 90.8884 137.718 90.6452C137.061 90.4021 136.339 90.3997 135.681 90.6384C135.353 90.7579 135.053 90.9418 134.798 91.1793C134.543 91.4167 134.338 91.7029 134.196 92.0209C134.167 92.0885 134.151 92.1595 134.127 92.2288C134.095 92.281 134.056 92.3281 134.027 92.3827C133.718 92.9982 133.634 93.702 133.788 94.3731C133.942 95.0442 134.326 95.6405 134.872 96.0592C135.419 96.478 136.095 96.693 136.783 96.6673C137.471 96.6416 138.128 96.3768 138.642 95.9184C139.182 95.4302 139.539 94.7719 139.653 94.0529C139.767 93.3339 139.631 92.5975 139.268 91.9663ZM137.402 93.2318C137.408 93.2694 137.406 93.304 137.402 93.2318V93.2318ZM137.212 92.8004C137.205 92.792 137.206 92.793 137.212 92.8004V92.8004ZM136.376 93.1367C136.365 93.1194 136.364 93.1166 136.376 93.1367V93.1367ZM136.574 93.3047C136.622 93.3208 136.603 93.3174 136.574 93.3047V93.3047ZM136.663 93.3469L136.683 93.3379C136.678 93.3383 136.673 93.3374 136.669 93.3351L136.669 93.335L136.685 93.3369L136.687 93.3356L136.679 93.3336C136.686 93.3333 136.687 93.3344 136.688 93.3356C136.776 93.295 136.716 93.3145 136.665 93.3304L136.661 93.3296C136.629 93.3133 136.595 93.3023 136.559 93.2968C136.556 93.295 136.552 93.2937 136.549 93.2917C136.521 93.2714 136.377 93.1587 136.51 93.2768C136.481 93.2511 136.453 93.2259 136.425 93.1981C136.409 93.1816 136.394 93.1636 136.381 93.1444C136.364 93.1143 136.347 93.0839 136.33 93.0533L136.328 93.0368C136.326 93.023 136.324 93.0173 136.322 93.0091C136.323 93.0006 136.324 92.9914 136.326 92.9825C136.336 92.9558 136.342 92.9277 136.345 92.8993L136.351 92.892C136.372 92.8621 136.391 92.8273 136.411 92.7962C136.303 92.9603 136.453 92.7781 136.465 92.7551C136.466 92.7511 136.463 92.7533 136.464 92.7506C136.468 92.7481 136.467 92.7498 136.472 92.7467C136.506 92.727 136.537 92.705 136.571 92.6862C136.612 92.6638 136.771 92.6185 136.606 92.6658C136.644 92.655 136.68 92.6415 136.718 92.6316C136.724 92.6298 136.78 92.622 136.81 92.6166C136.836 92.6159 136.862 92.6151 136.865 92.6152C136.877 92.6153 136.889 92.6168 136.902 92.6174C136.874 92.621 136.996 92.6473 137.032 92.6529C137.037 92.657 137.04 92.6596 137.047 92.6648C137.078 92.6871 137.115 92.7069 137.147 92.7278C137.003 92.6346 137.149 92.7352 137.176 92.7627C137.193 92.7791 137.208 92.7967 137.223 92.814C137.238 92.8305 137.25 92.8481 137.262 92.8667C137.285 92.91 137.311 92.9538 137.335 92.9964L137.342 93.0073C137.342 93.0087 137.342 93.0101 137.342 93.0115C137.355 93.0806 137.374 93.1484 137.399 93.2141C137.4 93.2196 137.401 93.2252 137.402 93.2309C137.404 93.2687 137.407 93.3064 137.407 93.3445L137.407 93.3522C137.292 93.2924 137.165 93.2607 137.036 93.2598C136.906 93.2588 136.779 93.2887 136.663 93.3469Z" fill="#E6E6E6"/>
<path d="M136.685 60.5536L136.683 60.5548L136.687 60.5536H136.685Z" fill="#E6E6E6"/>
<path d="M136.688 60.5522L136.69 60.5525L136.688 60.5522Z" fill="#E6E6E6"/>
<path d="M136.689 60.5534L136.687 60.5537C136.689 60.554 136.688 60.5536 136.689 60.5534Z" fill="#E6E6E6"/>
<path d="M136.689 60.5522C136.692 60.553 136.689 60.5529 136.688 60.5531L136.689 60.5522Z" fill="#E6E6E6"/>
<path d="M136.688 60.5516L136.688 60.5521L136.688 60.5516Z" fill="#E6E6E6"/>
<path d="M165.994 70.4869L165.995 70.4872L165.994 70.4869Z" fill="#E6E6E6"/>
<path d="M168.575 69.117C168.231 68.5071 167.681 68.039 167.024 67.7959C166.367 67.5528 165.646 67.5504 164.987 67.7891C164.66 67.9086 164.36 68.0925 164.105 68.33C163.85 68.5674 163.645 68.8536 163.502 69.1716C163.474 69.2392 163.457 69.3102 163.434 69.3795C163.402 69.4317 163.363 69.4788 163.334 69.5334C163.025 70.1489 162.94 70.8527 163.095 71.5238C163.249 72.1949 163.633 72.7912 164.179 73.2099C164.726 73.6287 165.401 73.8437 166.089 73.818C166.777 73.7923 167.435 73.5275 167.949 73.0691C168.489 72.5809 168.846 71.9226 168.959 71.2036C169.073 70.4846 168.938 69.7482 168.575 69.117ZM166.709 70.3825C166.715 70.4201 166.713 70.4547 166.709 70.3825V70.3825ZM166.519 69.9511C166.512 69.9427 166.513 69.9437 166.519 69.9511V69.9511ZM165.683 70.2874C165.672 70.2701 165.671 70.2673 165.683 70.2874V70.2874ZM165.881 70.4554C165.928 70.4715 165.91 70.4681 165.881 70.4554V70.4554ZM165.97 70.4976L165.989 70.4886C165.984 70.489 165.98 70.4881 165.975 70.4858L165.976 70.4857L165.991 70.4876L165.994 70.4863L165.985 70.4843C165.993 70.484 165.994 70.4851 165.994 70.4863C166.083 70.4457 166.023 70.4652 165.972 70.4811L165.968 70.4803C165.936 70.464 165.902 70.453 165.866 70.4475C165.863 70.4457 165.859 70.4444 165.856 70.4424C165.827 70.4221 165.683 70.3094 165.817 70.4275C165.788 70.4018 165.759 70.3766 165.732 70.3488C165.716 70.3323 165.701 70.3143 165.688 70.2951C165.671 70.265 165.654 70.2346 165.637 70.204L165.635 70.1875C165.632 70.1737 165.631 70.168 165.629 70.1598C165.63 70.1513 165.631 70.1421 165.632 70.1332C165.642 70.1064 165.649 70.0784 165.651 70.05L165.657 70.0427C165.679 70.0128 165.697 69.978 165.718 69.9469C165.61 70.111 165.76 69.9288 165.771 69.9058C165.773 69.9018 165.77 69.904 165.771 69.9013C165.775 69.8988 165.774 69.9005 165.779 69.8974C165.812 69.8777 165.844 69.8557 165.878 69.8369C165.919 69.8144 166.078 69.7692 165.913 69.8165C165.95 69.8057 165.986 69.7922 166.024 69.7823C166.031 69.7805 166.087 69.7727 166.117 69.7673C166.143 69.7666 166.169 69.7658 166.171 69.7659C166.184 69.766 166.196 69.7675 166.208 69.7681C166.181 69.7717 166.303 69.798 166.339 69.8036C166.344 69.8077 166.347 69.8103 166.354 69.8155C166.384 69.8378 166.421 69.8576 166.454 69.8785C166.309 69.7853 166.455 69.8858 166.483 69.9134C166.499 69.9298 166.515 69.9474 166.53 69.9647C166.544 69.9812 166.557 69.9988 166.568 70.0174C166.592 70.0606 166.617 70.1045 166.642 70.1471L166.649 70.158C166.649 70.1594 166.649 70.1608 166.649 70.1622C166.662 70.2313 166.681 70.2991 166.706 70.3647C166.707 70.3703 166.708 70.3759 166.709 70.3816C166.711 70.4194 166.714 70.4571 166.714 70.4952L166.714 70.5029C166.599 70.4431 166.472 70.4114 166.342 70.4105C166.213 70.4095 166.085 70.4394 165.97 70.4976Z" fill="#E6E6E6"/>
<path d="M165.992 70.4879L165.99 70.489L165.994 70.4879H165.992Z" fill="#E6E6E6"/>
<path d="M165.993 70.4864L165.994 70.4868L165.993 70.4864Z" fill="#E6E6E6"/>
<path d="M165.996 70.4869C165.999 70.4877 165.996 70.4876 165.996 70.4878L165.996 70.4869Z" fill="#E6E6E6"/>
<path d="M165.995 70.4876L165.993 70.4879C165.995 70.4882 165.995 70.4878 165.995 70.4876Z" fill="#E6E6E6"/>
<path d="M157.959 93.252L134.863 94.5357C134.733 94.543 134.605 94.5 134.506 94.4157C134.406 94.3314 134.343 94.2121 134.329 94.0824C134.315 93.9528 134.351 93.8227 134.43 93.7189C134.509 93.6152 134.624 93.5456 134.753 93.5247L158.36 89.6833L157.959 93.252Z" fill="#3F3D56"/>
<path d="M187.313 144.671L196.016 130.028L202.449 133.067C202.449 133.067 191.364 146.911 191.011 147.309C191.162 147.982 191.106 148.685 190.849 149.325C190.592 149.965 190.147 150.512 189.572 150.894C188.997 151.275 188.32 151.473 187.631 151.462C186.941 151.45 186.271 151.23 185.71 150.829C185.148 150.429 184.722 149.867 184.486 149.219C184.251 148.57 184.218 147.866 184.392 147.198C184.565 146.531 184.938 145.932 185.459 145.481C185.981 145.029 186.627 144.747 187.313 144.671Z" fill="#FFB6B6"/>
<path d="M190.933 110.658L205.034 118.014C205.915 118.649 206.654 119.461 207.204 120.398C207.754 121.334 208.102 122.375 208.226 123.454C208.351 124.533 208.248 125.626 207.926 126.664C207.604 127.701 207.069 128.659 206.355 129.478L196.635 140.629L192.4 134.891L195.664 128.066L189.344 126.399L190.933 110.658Z" fill="#FF00AC"/>
<path d="M150.748 93.4908L149.16 110.451L142.045 110.462C142.045 110.462 146.127 93.2032 146.275 92.692C145.85 92.1488 145.6 91.4894 145.558 90.801C145.516 90.1126 145.684 89.4276 146.04 88.8367C146.395 88.2457 146.922 87.7767 147.55 87.4916C148.178 87.2065 148.878 87.1188 149.557 87.2401C150.236 87.3613 150.862 87.6859 151.352 88.1707C151.843 88.6556 152.175 89.2779 152.304 89.9555C152.433 90.633 152.353 91.3337 152.075 91.965C151.798 92.5963 151.335 93.1283 150.748 93.4908V93.4908Z" fill="#FFB6B6"/>
<path d="M164.911 128.173L148.537 125.17C141.642 124.341 138.812 119.804 140.056 115.379L144.06 101.138L150.346 104.508L150.321 112.073L159.12 110.87L164.911 128.173Z" fill="#FF00AC"/>
<path d="M158.208 245.378H153.706L151.564 228.012H158.209L158.208 245.378Z" fill="#FFB6B6"/>
<path d="M158.367 250.076L144.521 250.075V249.9C144.522 248.471 145.089 247.1 146.1 246.089C147.111 245.079 148.481 244.511 149.911 244.511H149.911L152.44 242.592L157.159 244.511L158.367 244.511L158.367 250.076Z" fill="#2F2E41"/>
<path d="M190.064 245.378H194.567L196.708 228.012H190.063L190.064 245.378Z" fill="#FFB6B6"/>
<path d="M189.907 250.076L203.752 250.075V249.9C203.752 248.471 203.184 247.1 202.174 246.089C201.163 245.079 199.793 244.511 198.363 244.511H198.363L195.834 242.592L191.115 244.511L189.907 244.511L189.907 250.076Z" fill="#2F2E41"/>
<path d="M151.364 215.25C151.431 214.259 151.959 208.779 151.959 208.779L153.226 197.157L155.458 166.349L157.447 158.251L167.295 162.088L175.286 158.257L184.784 161.293L192.179 164.066C192.179 164.066 192.192 165.254 192.249 166.688C192.325 168.565 192.458 170.867 192.775 171.465C193.303 172.523 193.17 178.199 193.17 178.199C193.17 178.199 193.696 189.748 194.358 191.015C195.019 192.281 195.152 194.918 194.953 195.447C194.753 195.976 195.614 209.846 195.614 209.846C195.614 209.846 197.825 234.39 196.438 238.091C195.051 241.792 189.811 239.368 189.811 239.368C189.811 239.368 190.065 238.38 188.545 237.915C187.025 237.45 182.397 202.646 182.397 202.646C182.397 202.646 181.535 195.51 180.744 193.465C179.953 191.42 179.224 185.674 179.224 185.674C179.224 185.674 174.336 176.163 174.273 174.048C174.273 174.048 173.633 172.07 173.029 174.248C172.424 176.426 170.642 181.644 170.642 181.644L168.903 188.051L166.858 197.625L165.535 205.686C165.535 205.686 163.553 216.383 163.236 216.846C162.92 217.308 163.236 227.081 163.236 227.081C163.236 227.081 161.704 235.404 159.539 236.857C157.373 238.311 151.636 236.881 151.636 236.881C151.636 236.881 151.298 216.241 151.364 215.25Z" fill="#2F2E41"/>
<path d="M158.726 132.195L157.467 148.496L155.577 150.453C155.406 150.629 155.273 150.838 155.185 151.067C155.098 151.297 155.057 151.541 155.066 151.786C155.075 152.031 155.133 152.272 155.237 152.494C155.342 152.716 155.489 152.915 155.672 153.079L154.631 154.865L154.262 160.493C154.157 160.931 154.15 161.386 154.241 161.827C154.332 162.268 154.52 162.684 154.79 163.044C155.061 163.404 155.407 163.7 155.805 163.911C156.203 164.121 156.643 164.242 157.093 164.263L189.694 165.794C190.141 165.815 190.588 165.738 191.002 165.568C191.416 165.397 191.788 165.138 192.09 164.808C192.393 164.478 192.62 164.086 192.755 163.659C192.889 163.231 192.929 162.78 192.87 162.336L190.098 141.467V139.906L188.856 136.893L189.494 126.797L190.978 110.773L182.354 108.546L177.678 105.328L169.554 105.458L164.624 109.506L158.052 110.536L153.081 111.524L152.448 112.9L153.715 112.624L158.305 130.527L158.726 132.195Z" fill="#FF00AC"/>
<path d="M173.436 103.144C178.721 103.144 183.006 98.8595 183.006 93.5742C183.006 88.2889 178.721 84.0043 173.436 84.0043C168.151 84.0043 163.866 88.2889 163.866 93.5742C163.866 98.8595 168.151 103.144 173.436 103.144Z" fill="#FFB6B6"/>
<path d="M171.128 102.526L178.042 102.174C178.928 102.129 179.895 102.05 180.54 101.441C180.886 101.064 181.153 100.621 181.323 100.139C181.963 98.6539 182.602 97.1691 183.225 95.6774C184.086 93.614 184.933 91.4354 184.713 89.2102C184.661 88.194 184.235 87.233 183.516 86.5125C183.15 86.1654 182.678 85.9495 182.176 85.8986C181.674 85.8477 181.168 85.9646 180.74 86.2312C180.633 85.5273 180.368 84.857 179.964 84.2707C179.56 83.6845 179.029 83.1977 178.409 82.8472C177.158 82.156 175.729 81.8531 174.305 81.9771C172.238 82.1103 170.266 82.8878 168.664 84.2004C168.214 84.616 167.732 84.9972 167.225 85.3407C166.97 85.5114 166.682 85.6283 166.38 85.6842C166.078 85.74 165.768 85.7337 165.469 85.6657C165.172 85.5864 164.914 85.4024 164.743 85.1478C164.571 84.8931 164.497 84.5849 164.535 84.2802C164.049 84.6443 163.715 85.1768 163.599 85.7737C163.483 86.3706 163.594 86.9892 163.91 87.5089C163.551 87.6592 163.159 87.7142 162.773 87.6685C162.386 87.6228 162.018 87.4779 161.704 87.2479C161.368 87.4148 161.07 87.6501 160.83 87.9387C160.59 88.2273 160.413 88.5629 160.31 88.924C160.207 89.2851 160.181 89.6637 160.232 90.0355C160.284 90.4074 160.413 90.7643 160.611 91.0835C160.809 91.4026 161.071 91.677 161.381 91.8889C161.691 92.1009 162.041 92.2458 162.41 92.3144C162.78 92.383 163.159 92.3737 163.524 92.2872C163.89 92.2007 164.233 92.0388 164.532 91.812C164.952 92.3997 164.795 93.1985 164.741 93.9186C164.686 94.6387 164.879 95.5337 165.573 95.7328C166.512 96.0018 167.272 94.7381 168.249 94.7516C168.489 94.7712 168.722 94.8499 168.925 94.9808C169.128 95.1116 169.295 95.2906 169.413 95.5018C169.643 95.9262 169.8 96.3861 169.879 96.8624L171.128 102.487" fill="#2F2E41"/>
<path d="M440.723 188.575C440.723 187.093 440.226 185.89 439.615 185.888H273.04C272.427 185.89 271.932 187.093 271.929 188.575V249.577C271.929 249.715 271.878 249.848 271.785 249.95C271.693 250.052 271.566 250.115 271.429 250.129C270.982 250.172 270.535 250.212 270.088 250.248C270.077 250.248 270.065 250.251 270.054 250.251C269.811 250.273 269.568 250.29 269.325 250.309H269.322C269.197 250.078 269.073 249.845 268.951 249.609C268.909 249.53 268.888 249.442 268.888 249.352V185.089C268.888 184.679 268.904 184.267 268.932 183.861C268.971 183.303 269.041 182.747 269.139 182.197C269.607 179.628 270.663 177.889 271.863 177.884H440.79C440.965 177.885 441.138 177.921 441.298 177.991C441.534 178.096 441.747 178.245 441.926 178.431C442.168 178.683 442.376 178.967 442.542 179.274C443.231 180.646 443.627 182.146 443.706 183.679C443.706 183.695 443.709 183.712 443.709 183.728C443.748 184.176 443.767 184.632 443.764 185.089L443.803 191.013L443.828 194.547L443.903 205.633L443.93 209.571L444.052 249.991C444.052 250.138 443.994 250.279 443.89 250.382C443.786 250.486 443.646 250.544 443.499 250.544H441.276C441.13 250.544 440.989 250.486 440.885 250.382C440.781 250.279 440.723 250.138 440.723 249.991V188.575Z" fill="#E6E6E6"/>
<path d="M395.459 150.16H377.51C377.256 150.161 377.013 150.262 376.834 150.442C376.655 150.621 376.554 150.865 376.554 151.119V179.472H396.418V151.119C396.418 150.993 396.393 150.868 396.345 150.752C396.297 150.636 396.226 150.53 396.137 150.441C396.048 150.352 395.942 150.281 395.826 150.233C395.71 150.185 395.585 150.16 395.459 150.16ZM386.545 166.27C385.984 166.268 385.446 166.044 385.049 165.647C384.652 165.25 384.428 164.712 384.426 164.151V160.881C384.426 160.318 384.649 159.779 385.046 159.382C385.444 158.984 385.983 158.761 386.545 158.761C387.107 158.761 387.646 158.984 388.044 159.382C388.441 159.779 388.665 160.318 388.665 160.881V164.151C388.662 164.712 388.438 165.25 388.041 165.647C387.644 166.044 387.106 166.268 386.545 166.27Z" fill="#CCCCCC"/>
<path d="M376.493 178.566V181.301C376.493 181.443 376.55 181.579 376.65 181.679C376.75 181.779 376.886 181.836 377.028 181.836H395.945C396.087 181.835 396.222 181.779 396.322 181.678C396.422 181.578 396.479 181.443 396.48 181.301V178.566H376.493Z" fill="#3F3D56"/>
<path d="M425.182 105.911H348.459C347.799 105.912 347.168 106.174 346.701 106.64C346.235 107.107 345.973 107.738 345.972 108.398V160.171C345.973 160.83 346.235 161.462 346.701 161.929C347.167 162.395 347.799 162.657 348.459 162.658H425.182C425.841 162.657 426.474 162.395 426.94 161.929C427.406 161.462 427.668 160.83 427.669 160.171V108.398C427.668 107.738 427.405 107.107 426.939 106.64C426.473 106.174 425.841 105.912 425.182 105.911Z" fill="#E6E6E6"/>
<path d="M424.54 107.707H349.098C348.745 107.708 348.407 107.849 348.158 108.098C347.909 108.348 347.769 108.687 347.769 109.04V159.53C347.769 159.882 347.909 160.22 348.159 160.469C348.408 160.719 348.746 160.859 349.098 160.86H424.54C424.893 160.859 425.231 160.719 425.48 160.469C425.729 160.22 425.87 159.882 425.87 159.53V109.04C425.87 108.687 425.73 108.348 425.481 108.098C425.232 107.849 424.893 107.708 424.54 107.707Z" fill="white"/>
<path d="M409.846 182.787H364.962C364.839 182.787 364.717 182.76 364.607 182.707C364.496 182.654 364.398 182.577 364.32 182.482C364.243 182.387 364.188 182.275 364.159 182.156C364.13 182.036 364.128 181.912 364.154 181.792L364.85 178.484C364.89 178.299 364.992 178.133 365.138 178.014C365.285 177.894 365.469 177.829 365.658 177.828H409.149C409.338 177.829 409.522 177.894 409.669 178.014C409.816 178.133 409.917 178.299 409.957 178.484L410.654 181.792C410.679 181.912 410.677 182.036 410.648 182.156C410.619 182.275 410.564 182.387 410.487 182.482C410.409 182.577 410.312 182.654 410.201 182.707C410.09 182.76 409.968 182.787 409.846 182.787Z" fill="#CCCCCC"/>
<path d="M367.117 178.424H366.22C366.086 178.424 365.977 178.533 365.977 178.667V179.011C365.977 179.145 366.086 179.254 366.22 179.254H367.117C367.251 179.254 367.359 179.145 367.359 179.011V178.667C367.359 178.533 367.251 178.424 367.117 178.424Z" fill="#E6E6E6"/>
<path d="M369.881 178.424H368.984C368.85 178.424 368.741 178.533 368.741 178.667V179.011C368.741 179.145 368.85 179.254 368.984 179.254H369.881C370.015 179.254 370.124 179.145 370.124 179.011V178.667C370.124 178.533 370.015 178.424 369.881 178.424Z" fill="#E6E6E6"/>
<path d="M372.646 178.424H371.749C371.615 178.424 371.507 178.533 371.507 178.667V179.011C371.507 179.145 371.615 179.254 371.749 179.254H372.646C372.78 179.254 372.889 179.145 372.889 179.011V178.667C372.889 178.533 372.78 178.424 372.646 178.424Z" fill="#E6E6E6"/>
<path d="M375.411 178.424H374.513C374.38 178.424 374.271 178.533 374.271 178.667V179.011C374.271 179.145 374.38 179.254 374.513 179.254H375.411C375.545 179.254 375.653 179.145 375.653 179.011V178.667C375.653 178.533 375.545 178.424 375.411 178.424Z" fill="#E6E6E6"/>
<path d="M378.176 178.424H377.279C377.145 178.424 377.036 178.533 377.036 178.667V179.011C377.036 179.145 377.145 179.254 377.279 179.254H378.176C378.31 179.254 378.418 179.145 378.418 179.011V178.667C378.418 178.533 378.31 178.424 378.176 178.424Z" fill="#E6E6E6"/>
<path d="M380.94 178.424H380.043C379.909 178.424 379.801 178.533 379.801 178.667V179.011C379.801 179.145 379.909 179.254 380.043 179.254H380.94C381.074 179.254 381.183 179.145 381.183 179.011V178.667C381.183 178.533 381.074 178.424 380.94 178.424Z" fill="#E6E6E6"/>
<path d="M383.706 178.424H382.808C382.674 178.424 382.566 178.533 382.566 178.667V179.011C382.566 179.145 382.674 179.254 382.808 179.254H383.706C383.839 179.254 383.948 179.145 383.948 179.011V178.667C383.948 178.533 383.839 178.424 383.706 178.424Z" fill="#E6E6E6"/>
<path d="M386.47 178.424H385.573C385.439 178.424 385.33 178.533 385.33 178.667V179.011C385.33 179.145 385.439 179.254 385.573 179.254H386.47C386.604 179.254 386.712 179.145 386.712 179.011V178.667C386.712 178.533 386.604 178.424 386.47 178.424Z" fill="#E6E6E6"/>
<path d="M389.234 178.424H388.337C388.203 178.424 388.094 178.533 388.094 178.667V179.011C388.094 179.145 388.203 179.254 388.337 179.254H389.234C389.368 179.254 389.477 179.145 389.477 179.011V178.667C389.477 178.533 389.368 178.424 389.234 178.424Z" fill="#E6E6E6"/>
<path d="M391.999 178.424H391.102C390.968 178.424 390.859 178.533 390.859 178.667V179.011C390.859 179.145 390.968 179.254 391.102 179.254H391.999C392.133 179.254 392.242 179.145 392.242 179.011V178.667C392.242 178.533 392.133 178.424 391.999 178.424Z" fill="#E6E6E6"/>
<path d="M394.764 178.424H393.866C393.732 178.424 393.624 178.533 393.624 178.667V179.011C393.624 179.145 393.732 179.254 393.866 179.254H394.764C394.898 179.254 395.006 179.145 395.006 179.011V178.667C395.006 178.533 394.898 178.424 394.764 178.424Z" fill="#E6E6E6"/>
<path d="M397.529 178.424H396.631C396.498 178.424 396.389 178.533 396.389 178.667V179.011C396.389 179.145 396.498 179.254 396.631 179.254H397.529C397.663 179.254 397.771 179.145 397.771 179.011V178.667C397.771 178.533 397.663 178.424 397.529 178.424Z" fill="#E6E6E6"/>
<path d="M400.293 178.424H399.396C399.262 178.424 399.153 178.533 399.153 178.667V179.011C399.153 179.145 399.262 179.254 399.396 179.254H400.293C400.427 179.254 400.536 179.145 400.536 179.011V178.667C400.536 178.533 400.427 178.424 400.293 178.424Z" fill="#E6E6E6"/>
<path d="M403.058 178.424H402.161C402.027 178.424 401.918 178.533 401.918 178.667V179.011C401.918 179.145 402.027 179.254 402.161 179.254H403.058C403.192 179.254 403.301 179.145 403.301 179.011V178.667C403.301 178.533 403.192 178.424 403.058 178.424Z" fill="#E6E6E6"/>
<path d="M405.825 178.424H404.927C404.793 178.424 404.685 178.533 404.685 178.667V179.011C404.685 179.145 404.793 179.254 404.927 179.254H405.825C405.959 179.254 406.067 179.145 406.067 179.011V178.667C406.067 178.533 405.959 178.424 405.825 178.424Z" fill="#E6E6E6"/>
<path d="M408.588 178.424H407.691C407.557 178.424 407.448 178.533 407.448 178.667V179.011C407.448 179.145 407.557 179.254 407.691 179.254H408.588C408.722 179.254 408.83 179.145 408.83 179.011V178.667C408.83 178.533 408.722 178.424 408.588 178.424Z" fill="#E6E6E6"/>
<path d="M367.082 179.806H366.185C366.051 179.806 365.942 179.915 365.942 180.049V180.393C365.942 180.527 366.051 180.636 366.185 180.636H367.082C367.216 180.636 367.325 180.527 367.325 180.393V180.049C367.325 179.915 367.216 179.806 367.082 179.806Z" fill="#E6E6E6"/>
<path d="M369.849 179.806H368.951C368.817 179.806 368.709 179.915 368.709 180.049V180.393C368.709 180.527 368.817 180.636 368.951 180.636H369.849C369.983 180.636 370.091 180.527 370.091 180.393V180.049C370.091 179.915 369.983 179.806 369.849 179.806Z" fill="#E6E6E6"/>
<path d="M372.613 179.806H371.715C371.581 179.806 371.473 179.915 371.473 180.049V180.393C371.473 180.527 371.581 180.636 371.715 180.636H372.613C372.747 180.636 372.855 180.527 372.855 180.393V180.049C372.855 179.915 372.747 179.806 372.613 179.806Z" fill="#E6E6E6"/>
<path d="M375.378 179.806H374.481C374.347 179.806 374.238 179.915 374.238 180.049V180.393C374.238 180.527 374.347 180.636 374.481 180.636H375.378C375.512 180.636 375.621 180.527 375.621 180.393V180.049C375.621 179.915 375.512 179.806 375.378 179.806Z" fill="#E6E6E6"/>
<path d="M378.143 179.806H377.246C377.112 179.806 377.003 179.915 377.003 180.049V180.393C377.003 180.527 377.112 180.636 377.246 180.636H378.143C378.277 180.636 378.386 180.527 378.386 180.393V180.049C378.386 179.915 378.277 179.806 378.143 179.806Z" fill="#E6E6E6"/>
<path d="M380.909 179.806H380.011C379.877 179.806 379.769 179.915 379.769 180.049V180.393C379.769 180.527 379.877 180.636 380.011 180.636H380.909C381.043 180.636 381.151 180.527 381.151 180.393V180.049C381.151 179.915 381.043 179.806 380.909 179.806Z" fill="#E6E6E6"/>
<path d="M383.672 179.806H382.774C382.641 179.806 382.532 179.915 382.532 180.049V180.393C382.532 180.527 382.641 180.636 382.774 180.636H383.672C383.806 180.636 383.914 180.527 383.914 180.393V180.049C383.914 179.915 383.806 179.806 383.672 179.806Z" fill="#E6E6E6"/>
<path d="M386.437 179.806H385.54C385.406 179.806 385.297 179.915 385.297 180.049V180.393C385.297 180.527 385.406 180.636 385.54 180.636H386.437C386.571 180.636 386.68 180.527 386.68 180.393V180.049C386.68 179.915 386.571 179.806 386.437 179.806Z" fill="#E6E6E6"/>
<path d="M389.201 179.806H388.304C388.17 179.806 388.062 179.915 388.062 180.049V180.393C388.062 180.527 388.17 180.636 388.304 180.636H389.201C389.335 180.636 389.444 180.527 389.444 180.393V180.049C389.444 179.915 389.335 179.806 389.201 179.806Z" fill="#E6E6E6"/>
<path d="M391.968 179.806H391.07C390.936 179.806 390.828 179.915 390.828 180.049V180.393C390.828 180.527 390.936 180.636 391.07 180.636H391.968C392.101 180.636 392.21 180.527 392.21 180.393V180.049C392.21 179.915 392.101 179.806 391.968 179.806Z" fill="#E6E6E6"/>
<path d="M394.731 179.806H393.834C393.7 179.806 393.591 179.915 393.591 180.049V180.393C393.591 180.527 393.7 180.636 393.834 180.636H394.731C394.865 180.636 394.973 180.527 394.973 180.393V180.049C394.973 179.915 394.865 179.806 394.731 179.806Z" fill="#E6E6E6"/>
<path d="M397.496 179.806H396.599C396.465 179.806 396.356 179.915 396.356 180.049V180.393C396.356 180.527 396.465 180.636 396.599 180.636H397.496C397.63 180.636 397.739 180.527 397.739 180.393V180.049C397.739 179.915 397.63 179.806 397.496 179.806Z" fill="#E6E6E6"/>
<path d="M400.261 179.806H399.364C399.23 179.806 399.122 179.915 399.122 180.049V180.393C399.122 180.527 399.23 180.636 399.364 180.636H400.261C400.395 180.636 400.504 180.527 400.504 180.393V180.049C400.504 179.915 400.395 179.806 400.261 179.806Z" fill="#E6E6E6"/>
<path d="M403.026 179.806H402.128C401.994 179.806 401.886 179.915 401.886 180.049V180.393C401.886 180.527 401.994 180.636 402.128 180.636H403.026C403.16 180.636 403.268 180.527 403.268 180.393V180.049C403.268 179.915 403.16 179.806 403.026 179.806Z" fill="#E6E6E6"/>
<path d="M405.79 179.806H404.893C404.759 179.806 404.65 179.915 404.65 180.049V180.393C404.65 180.527 404.759 180.636 404.893 180.636H405.79C405.924 180.636 406.033 180.527 406.033 180.393V180.049C406.033 179.915 405.924 179.806 405.79 179.806Z" fill="#E6E6E6"/>
<path d="M408.555 179.806H407.658C407.524 179.806 407.415 179.915 407.415 180.049V180.393C407.415 180.527 407.524 180.636 407.658 180.636H408.555C408.689 180.636 408.798 180.527 408.798 180.393V180.049C408.798 179.915 408.689 179.806 408.555 179.806Z" fill="#E6E6E6"/>
<path d="M390.031 181.465H379.457C379.323 181.465 379.214 181.574 379.214 181.708V182.052C379.214 182.186 379.323 182.295 379.457 182.295H390.031C390.165 182.295 390.273 182.186 390.273 182.052V181.708C390.273 181.574 390.165 181.465 390.031 181.465Z" fill="#E6E6E6"/>
<path d="M420.749 114.663H350.158C350.084 114.662 350.015 114.631 349.963 114.579C349.912 114.527 349.883 114.456 349.883 114.383C349.883 114.309 349.912 114.239 349.963 114.186C350.015 114.134 350.084 114.104 350.158 114.102H420.749C420.822 114.104 420.892 114.134 420.943 114.186C420.994 114.239 421.023 114.309 421.023 114.383C421.023 114.456 420.994 114.527 420.943 114.579C420.892 114.631 420.822 114.662 420.749 114.663Z" fill="#CACACA"/>
<path d="M354.962 112.669C355.871 112.669 356.607 111.916 356.607 110.987C356.607 110.058 355.871 109.305 354.962 109.305C354.053 109.305 353.317 110.058 353.317 110.987C353.317 111.916 354.053 112.669 354.962 112.669Z" fill="#CCCCCC"/>
<path d="M360.646 112.669C361.555 112.669 362.291 111.916 362.291 110.987C362.291 110.058 361.555 109.305 360.646 109.305C359.738 109.305 359.001 110.058 359.001 110.987C359.001 111.916 359.738 112.669 360.646 112.669Z" fill="#CCCCCC"/>
<path d="M366.329 112.669C367.238 112.669 367.974 111.916 367.974 110.987C367.974 110.058 367.238 109.305 366.329 109.305C365.421 109.305 364.684 110.058 364.684 110.987C364.684 111.916 365.421 112.669 366.329 112.669Z" fill="#CCCCCC"/>
<path d="M417.326 109.722H413.289C413.209 109.724 413.133 109.757 413.077 109.814C413.021 109.871 412.99 109.948 412.99 110.028C412.99 110.108 413.021 110.185 413.077 110.242C413.133 110.299 413.209 110.332 413.289 110.333H417.326C417.406 110.332 417.483 110.299 417.539 110.242C417.595 110.185 417.626 110.108 417.626 110.028C417.626 109.948 417.595 109.871 417.539 109.814C417.483 109.757 417.406 109.724 417.326 109.722H417.326Z" fill="#CCCCCC"/>
<path d="M417.326 110.869H413.289C413.209 110.871 413.133 110.904 413.077 110.961C413.021 111.018 412.99 111.095 412.99 111.175C412.99 111.255 413.021 111.332 413.077 111.389C413.133 111.446 413.209 111.479 413.289 111.481H417.326C417.406 111.479 417.482 111.446 417.538 111.389C417.594 111.332 417.626 111.255 417.626 111.175C417.626 111.095 417.594 111.018 417.538 110.961C417.482 110.904 417.406 110.871 417.326 110.869H417.326Z" fill="#CCCCCC"/>
<path d="M417.326 112.015H413.289C413.209 112.017 413.133 112.05 413.077 112.107C413.021 112.164 412.99 112.241 412.99 112.321C412.99 112.401 413.021 112.478 413.077 112.535C413.133 112.592 413.209 112.625 413.289 112.626H417.326C417.406 112.625 417.483 112.592 417.539 112.535C417.595 112.478 417.626 112.401 417.626 112.321C417.626 112.241 417.595 112.164 417.539 112.107C417.483 112.05 417.406 112.017 417.326 112.015H417.326Z" fill="#CCCCCC"/>
<path d="M391.152 129.957H382.332C381.669 129.957 381.132 130.494 381.132 131.157C381.132 131.819 381.669 132.357 382.332 132.357H391.152C391.815 132.357 392.352 131.819 392.352 131.157C392.352 130.494 391.815 129.957 391.152 129.957Z" fill="#FF00AC"/>
<path d="M396.851 134.756H376.633C375.971 134.756 375.434 135.293 375.434 135.955C375.434 136.618 375.971 137.155 376.633 137.155H396.851C397.513 137.155 398.05 136.618 398.05 135.955C398.05 135.293 397.513 134.756 396.851 134.756Z" fill="#E6E6E6"/>
<path d="M396.851 139.554H376.633C375.971 139.554 375.434 140.092 375.434 140.754C375.434 141.417 375.971 141.954 376.633 141.954H396.851C397.513 141.954 398.05 141.417 398.05 140.754C398.05 140.092 397.513 139.554 396.851 139.554Z" fill="#E6E6E6"/>
<path d="M260.646 214.31L256.579 212.365L262.165 195.369L268.166 198.239L260.646 214.31Z" fill="#FFB6B6"/>
<path d="M287.906 211.571C287.61 211.756 287.314 211.938 287.016 212.12C286.421 212.484 285.821 212.843 285.221 213.195C284.919 213.372 284.614 213.548 284.313 213.721V213.73L284.295 213.733L284.289 213.736L283.829 213.849L283.169 212.105L282.864 211.302L282.434 210.164L281.645 208.082L277.494 197.12L283.948 195.528L284.19 196.517H284.193L284.313 197.007L286.568 206.152L287.028 208.022L287.043 208.079L287.32 209.196L287.559 210.164L287.825 211.245L287.906 211.571Z" fill="#FFB6B6"/>
<path d="M326.41 173.075C326.001 173.732 325.583 174.386 325.162 175.035C324.379 176.241 323.576 177.43 322.752 178.601C322.752 178.604 322.749 178.604 322.746 178.607C322.265 179.052 321.733 179.44 321.163 179.763C321.139 179.781 321.112 179.793 321.088 179.808C320.668 180.04 320.22 180.219 319.756 180.342C319.588 180.384 319.418 180.426 319.251 180.468C318.648 180.611 318.05 180.733 317.456 180.841C316.399 181.029 315.353 181.164 314.314 181.247C314.23 181.256 314.146 181.262 314.063 181.268C309.789 181.582 305.628 181.077 301.285 180.25C299.14 179.843 296.951 179.357 294.684 178.852C293.943 178.684 293.2 178.52 292.447 178.356C292.39 178.344 292.33 178.329 292.271 178.317C291.195 178.081 290.102 177.848 288.982 177.618C287.572 177.328 286.118 177.048 284.606 176.782L284.714 178.911C284.803 180.55 285.144 182.164 285.724 183.699C286.369 185.587 286.879 187.081 285.801 190.19L285.281 191.695C285.551 192.443 285.643 193.243 285.552 194.032C285.46 194.821 285.186 195.578 284.753 196.244L284.648 196.403L288.982 207.367L289.263 208.078H287.044L284.314 208.081H279.687L273.012 194.688L272.692 194.049V194.016L273.382 168.278C273.391 168.051 273.409 167.821 273.439 167.594C273.56 166.562 273.886 165.565 274.398 164.66C274.909 163.756 275.595 162.962 276.417 162.325C277.204 161.71 278.105 161.258 279.068 160.994C280.032 160.731 281.038 160.661 282.029 160.79L284.314 161.086L288.982 161.689L292.271 162.116L292.336 162.125L302.035 163.38L302.731 160.542L302.859 160.495L306.942 158.998L321.064 153.822L321.1 153.81L322.029 153.469L322.139 153.649C322.172 153.702 322.205 153.756 322.235 153.81C323.153 155.456 323.9 157.191 324.466 158.989C325.417 161.926 326.2 164.915 326.811 167.941C326.838 168.072 326.861 168.192 326.882 168.299L326.891 168.332C326.9 168.383 326.906 168.416 326.909 168.425C327.189 169.991 327.016 171.604 326.41 173.075Z" fill="#2F2E41"/>
<path d="M327.007 163.59C326.962 163.399 326.905 163.205 326.845 163.017C326.371 161.591 325.819 160.193 325.191 158.829C324.486 157.276 323.64 155.612 322.634 153.811C322.147 152.939 321.623 152.032 321.063 151.09C320.782 150.618 320.49 150.137 320.188 149.647C320.176 149.625 320.163 149.603 320.149 149.582L320.062 149.438L306.09 151.308L300.887 152.004L300.576 154.597L300.501 155.239C300.498 155.239 300.498 155.239 300.501 155.242L300.292 156.992V156.995L300.014 159.307L299.99 159.304L292.269 158.303L284.312 157.273L280.038 156.72C279.048 156.591 278.041 156.66 277.078 156.924C276.114 157.188 275.213 157.64 274.426 158.256C273.605 158.892 272.919 159.686 272.407 160.591C271.896 161.495 271.57 162.492 271.448 163.524C271.421 163.733 271.403 163.948 271.394 164.161L267.362 173.716C264.949 179.43 263.413 185.476 262.804 191.649L259.847 201.102L260.268 201.141L266.535 201.723L268.189 201.879L271.833 196.559C272.249 195.953 272.643 195.328 273.01 194.689C273.615 193.645 274.153 192.564 274.62 191.451L282.502 172.694C283.112 172.799 283.715 172.898 284.312 172.993C287.075 173.441 289.728 173.806 292.269 174.089C300.534 175.012 307.691 175.083 314.062 174.301C315.851 174.083 317.58 173.796 319.25 173.441C319.862 173.312 320.466 173.174 321.063 173.026C321.203 172.993 321.34 172.96 321.478 172.924C322.712 172.606 323.847 171.983 324.779 171.112C325.71 170.242 326.408 169.152 326.809 167.942C327.288 166.54 327.357 165.03 327.007 163.59Z" fill="#2F2E41"/>
<path d="M261.943 211.535L257.544 209.426L256.854 209.095L255.752 211.801L248.058 213.494C247.677 213.578 247.333 213.781 247.076 214.073C246.819 214.366 246.663 214.733 246.63 215.121C246.596 215.509 246.688 215.898 246.891 216.23C247.094 216.562 247.398 216.821 247.759 216.968L255.277 220.036L257.663 217.888L257.078 220.77L259.909 221.926L263.013 212.049L261.943 211.535Z" fill="#2F2E41"/>
<path d="M288.982 207.367L289.263 208.078H288.982V207.367Z" fill="#2F2E41"/>
<path d="M287.45 208.23L282.84 209.827L282.117 210.077L283.237 212.775L278.962 219.392C278.75 219.719 278.649 220.105 278.672 220.494C278.695 220.883 278.842 221.254 279.092 221.553C279.341 221.852 279.68 222.064 280.058 222.157C280.436 222.25 280.834 222.22 281.194 222.071L288.694 218.961L288.879 215.756L290.491 218.216L293.316 217.045L288.571 207.842L287.45 208.23Z" fill="#2F2E41"/>
<path d="M259.47 109.403C259.688 109.829 259.998 110.202 260.376 110.495C260.754 110.789 261.192 110.996 261.659 111.101C262.126 111.207 262.61 111.209 263.078 111.108C263.546 111.006 263.985 110.803 264.366 110.513L274.06 116.948L274.079 110.902L264.87 105.718C264.341 105.11 263.607 104.718 262.807 104.616C262.008 104.513 261.199 104.708 260.533 105.162C259.867 105.616 259.391 106.299 259.196 107.081C259 107.862 259.097 108.689 259.47 109.403V109.403Z" fill="#FFB6B6"/>
<path d="M266.712 112.198L271.235 107.052L289.651 117.985L314.063 115.75C315.27 115.639 316.486 115.796 317.625 116.208C318.764 116.62 319.799 117.279 320.655 118.136C321.512 118.993 322.169 120.028 322.58 121.168C322.992 122.308 323.147 123.524 323.035 124.731C322.831 126.91 321.771 128.919 320.087 130.317C318.404 131.716 316.234 132.389 314.055 132.19L286.561 129.645L266.712 112.198Z" fill="#CCCCCC"/>
<path d="M323.371 112.277L323.329 112.224C319.895 111.885 316.436 112.55 313.372 114.137C310.308 115.725 307.77 118.167 306.066 121.168L303.995 124.818C297.293 133.01 302.163 138.66 302.455 139.5L300.128 150.225L300.65 153.815L300.91 154.881L327.462 168.755C328.974 161.492 327.512 155.302 322.005 150.574L327.333 133.994C328.515 130.328 328.771 126.427 328.08 122.638C327.389 118.849 325.771 115.29 323.371 112.277Z" fill="#CCCCCC"/>
<path d="M302.258 192.825H293.742C293.273 192.825 292.82 192.655 292.467 192.348C292.113 192.041 291.882 191.616 291.817 191.152C291.291 187.283 291.291 183.359 291.817 179.49C291.882 179.031 292.108 178.611 292.455 178.305C292.801 177.998 293.246 177.825 293.709 177.817C296.389 176.616 299.274 176.616 302.288 177.817C302.568 177.821 302.845 177.886 303.098 178.008C303.35 178.13 303.573 178.306 303.751 178.523C303.936 178.749 304.069 179.013 304.139 179.297C304.209 179.581 304.216 179.877 304.157 180.163C303.473 183.568 303.473 187.074 304.157 190.479C304.216 190.765 304.209 191.061 304.139 191.345C304.069 191.629 303.936 191.893 303.751 192.119C303.57 192.34 303.343 192.518 303.084 192.64C302.826 192.762 302.544 192.825 302.258 192.825Z" fill="#FF00AC"/>
<path d="M301.366 182.264H294.197C294.138 182.264 294.079 182.253 294.024 182.231C293.97 182.208 293.92 182.175 293.878 182.134C293.836 182.092 293.802 182.043 293.78 181.988C293.757 181.933 293.745 181.875 293.745 181.816C293.745 181.756 293.757 181.698 293.78 181.643C293.802 181.589 293.836 181.539 293.878 181.497C293.92 181.456 293.97 181.423 294.024 181.4C294.079 181.378 294.138 181.367 294.197 181.368H301.366C301.425 181.367 301.483 181.378 301.538 181.4C301.593 181.423 301.643 181.456 301.685 181.497C301.727 181.539 301.76 181.589 301.783 181.643C301.806 181.698 301.818 181.756 301.818 181.816C301.818 181.875 301.806 181.933 301.783 181.988C301.76 182.043 301.727 182.092 301.685 182.134C301.643 182.175 301.593 182.208 301.538 182.231C301.483 182.253 301.425 182.264 301.366 182.264Z" fill="white"/>
<path d="M301.366 185.847H294.197C294.138 185.848 294.079 185.837 294.024 185.815C293.97 185.792 293.92 185.759 293.878 185.718C293.836 185.676 293.802 185.626 293.78 185.572C293.757 185.517 293.745 185.459 293.745 185.399C293.745 185.34 293.757 185.282 293.78 185.227C293.802 185.172 293.836 185.123 293.878 185.081C293.92 185.04 293.97 185.007 294.024 184.984C294.079 184.962 294.138 184.951 294.197 184.951H301.366C301.425 184.951 301.483 184.962 301.538 184.984C301.593 185.007 301.643 185.04 301.685 185.081C301.727 185.123 301.76 185.172 301.783 185.227C301.806 185.282 301.818 185.34 301.818 185.399C301.818 185.459 301.806 185.517 301.783 185.572C301.76 185.626 301.727 185.676 301.685 185.718C301.643 185.759 301.593 185.792 301.538 185.815C301.483 185.837 301.425 185.848 301.366 185.847Z" fill="white"/>
<path d="M301.366 189.432H294.197C294.138 189.432 294.079 189.421 294.025 189.399C293.97 189.377 293.92 189.344 293.878 189.302C293.836 189.26 293.802 189.211 293.78 189.156C293.757 189.101 293.745 189.043 293.745 188.984C293.745 188.925 293.757 188.866 293.78 188.811C293.802 188.757 293.836 188.707 293.878 188.665C293.92 188.624 293.97 188.591 294.025 188.569C294.079 188.546 294.138 188.535 294.197 188.536H301.366C301.425 188.535 301.484 188.546 301.539 188.569C301.593 188.591 301.643 188.624 301.685 188.665C301.727 188.707 301.761 188.757 301.784 188.811C301.806 188.866 301.818 188.925 301.818 188.984C301.818 189.043 301.806 189.101 301.784 189.156C301.761 189.211 301.727 189.26 301.685 189.302C301.643 189.344 301.593 189.377 301.539 189.399C301.484 189.421 301.425 189.432 301.366 189.432Z" fill="white"/>
<path d="M261.031 112.355H252.514C252.046 112.355 251.593 112.186 251.24 111.878C250.886 111.571 250.655 111.147 250.589 110.683C250.064 106.813 250.064 102.89 250.589 99.0198C250.655 98.5616 250.881 98.1415 251.228 97.835C251.574 97.5286 252.019 97.3557 252.482 97.3476C255.162 96.1465 258.047 96.1466 261.061 97.3475C261.341 97.3512 261.618 97.4163 261.871 97.5382C262.123 97.6601 262.346 97.8359 262.524 98.0532C262.709 98.2792 262.842 98.5437 262.912 98.8274C262.982 99.1111 262.988 99.4068 262.93 99.6932C262.246 103.098 262.246 106.605 262.93 110.009C262.988 110.296 262.982 110.591 262.912 110.875C262.842 111.159 262.709 111.423 262.524 111.649C262.343 111.87 262.116 112.049 261.857 112.171C261.599 112.293 261.317 112.356 261.031 112.355Z" fill="#FF00AC"/>
<path d="M260.138 101.794H252.969C252.91 101.794 252.851 101.783 252.796 101.761C252.742 101.739 252.692 101.706 252.65 101.664C252.608 101.622 252.574 101.573 252.552 101.518C252.529 101.464 252.517 101.405 252.517 101.346C252.517 101.287 252.529 101.228 252.552 101.173C252.574 101.119 252.608 101.069 252.65 101.028C252.692 100.986 252.742 100.953 252.796 100.931C252.851 100.909 252.91 100.897 252.969 100.898H260.138C260.197 100.897 260.255 100.909 260.31 100.931C260.365 100.953 260.415 100.986 260.457 101.028C260.499 101.069 260.532 101.119 260.555 101.173C260.578 101.228 260.59 101.287 260.59 101.346C260.59 101.405 260.578 101.464 260.555 101.518C260.532 101.573 260.499 101.622 260.457 101.664C260.415 101.706 260.365 101.739 260.31 101.761C260.255 101.783 260.197 101.794 260.138 101.794Z" fill="white"/>
<path d="M260.138 105.378H252.969C252.91 105.379 252.851 105.367 252.796 105.345C252.742 105.323 252.692 105.29 252.65 105.248C252.608 105.207 252.574 105.157 252.552 105.102C252.529 105.048 252.517 104.989 252.517 104.93C252.517 104.871 252.529 104.812 252.552 104.758C252.574 104.703 252.608 104.654 252.65 104.612C252.692 104.57 252.742 104.537 252.796 104.515C252.851 104.493 252.91 104.482 252.969 104.482H260.138C260.197 104.482 260.255 104.493 260.31 104.515C260.365 104.537 260.415 104.57 260.457 104.612C260.499 104.654 260.532 104.703 260.555 104.758C260.578 104.812 260.59 104.871 260.59 104.93C260.59 104.989 260.578 105.048 260.555 105.102C260.532 105.157 260.499 105.207 260.457 105.248C260.415 105.29 260.365 105.323 260.31 105.345C260.255 105.367 260.197 105.379 260.138 105.378Z" fill="white"/>
<path d="M260.138 108.962H252.969C252.91 108.963 252.851 108.952 252.797 108.929C252.742 108.907 252.692 108.874 252.65 108.833C252.608 108.791 252.574 108.741 252.552 108.687C252.529 108.632 252.517 108.574 252.517 108.514C252.517 108.455 252.529 108.397 252.552 108.342C252.574 108.287 252.608 108.238 252.65 108.196C252.692 108.154 252.742 108.121 252.797 108.099C252.851 108.077 252.91 108.066 252.969 108.066H260.138C260.197 108.066 260.256 108.077 260.311 108.099C260.365 108.121 260.415 108.154 260.457 108.196C260.499 108.238 260.533 108.287 260.556 108.342C260.578 108.397 260.59 108.455 260.59 108.514C260.59 108.574 260.578 108.632 260.556 108.687C260.533 108.741 260.499 108.791 260.457 108.833C260.415 108.874 260.365 108.907 260.311 108.929C260.256 108.952 260.197 108.963 260.138 108.962Z" fill="white"/>
<path d="M111.516 134.211H102.999C102.531 134.211 102.078 134.042 101.724 133.734C101.371 133.427 101.14 133.003 101.074 132.539C100.548 128.669 100.548 124.746 101.074 120.876C101.139 120.418 101.365 119.998 101.712 119.691C102.059 119.385 102.504 119.212 102.966 119.204C105.646 118.003 108.532 118.003 111.545 119.204C111.826 119.207 112.102 119.272 112.355 119.394C112.608 119.516 112.831 119.692 113.009 119.909C113.194 120.135 113.326 120.4 113.397 120.683C113.467 120.967 113.473 121.263 113.415 121.549C112.731 124.954 112.731 128.461 113.415 131.865C113.473 132.152 113.467 132.448 113.397 132.731C113.326 133.015 113.194 133.279 113.009 133.505C112.828 133.727 112.6 133.905 112.342 134.027C112.084 134.149 111.802 134.212 111.516 134.211Z" fill="#FF00AC"/>
<path d="M110.624 123.65H103.456C103.397 123.65 103.338 123.639 103.283 123.617C103.228 123.595 103.179 123.562 103.137 123.52C103.095 123.479 103.061 123.429 103.038 123.374C103.016 123.32 103.004 123.261 103.004 123.202C103.004 123.143 103.016 123.084 103.038 123.03C103.061 122.975 103.095 122.925 103.137 122.884C103.179 122.842 103.228 122.809 103.283 122.787C103.338 122.765 103.397 122.753 103.456 122.754H110.624C110.684 122.753 110.742 122.765 110.797 122.787C110.852 122.809 110.902 122.842 110.944 122.884C110.986 122.925 111.019 122.975 111.042 123.03C111.065 123.084 111.076 123.143 111.076 123.202C111.076 123.261 111.065 123.32 111.042 123.374C111.019 123.429 110.986 123.479 110.944 123.52C110.902 123.562 110.852 123.595 110.797 123.617C110.742 123.639 110.684 123.65 110.624 123.65Z" fill="white"/>
<path d="M110.624 127.234H103.456C103.397 127.234 103.338 127.223 103.283 127.201C103.228 127.179 103.179 127.146 103.137 127.104C103.095 127.062 103.061 127.013 103.038 126.958C103.016 126.904 103.004 126.845 103.004 126.786C103.004 126.727 103.016 126.668 103.038 126.614C103.061 126.559 103.095 126.509 103.137 126.468C103.179 126.426 103.228 126.393 103.283 126.371C103.338 126.349 103.397 126.337 103.456 126.338H110.624C110.684 126.337 110.742 126.349 110.797 126.371C110.852 126.393 110.902 126.426 110.944 126.468C110.986 126.509 111.019 126.559 111.042 126.614C111.065 126.668 111.076 126.727 111.076 126.786C111.076 126.845 111.065 126.904 111.042 126.958C111.019 127.013 110.986 127.062 110.944 127.104C110.902 127.146 110.852 127.179 110.797 127.201C110.742 127.223 110.684 127.234 110.624 127.234Z" fill="white"/>
<path d="M110.625 130.819H103.456C103.397 130.819 103.338 130.808 103.283 130.786C103.229 130.764 103.179 130.731 103.137 130.689C103.095 130.647 103.061 130.598 103.038 130.543C103.016 130.488 103.004 130.43 103.004 130.371C103.004 130.311 103.016 130.253 103.038 130.198C103.061 130.144 103.095 130.094 103.137 130.052C103.179 130.011 103.229 129.978 103.283 129.956C103.338 129.933 103.397 129.922 103.456 129.923H110.625C110.684 129.922 110.743 129.933 110.797 129.956C110.852 129.978 110.902 130.011 110.944 130.052C110.986 130.094 111.02 130.144 111.042 130.198C111.065 130.253 111.077 130.311 111.077 130.371C111.077 130.43 111.065 130.488 111.042 130.543C111.02 130.598 110.986 130.647 110.944 130.689C110.902 130.731 110.852 130.764 110.797 130.786C110.743 130.808 110.684 130.819 110.625 130.819Z" fill="white"/>
<path d="M304.755 181.937C305.167 181.694 305.521 181.363 305.791 180.968C306.062 180.573 306.242 180.124 306.32 179.651C306.398 179.179 306.372 178.696 306.243 178.235C306.113 177.774 305.885 177.347 305.573 176.984L311.421 166.925L305.385 167.265L300.756 176.765C300.181 177.33 299.833 178.086 299.778 178.89C299.723 179.694 299.965 180.49 300.458 181.128C300.951 181.765 301.661 182.2 302.453 182.349C303.245 182.498 304.064 182.352 304.755 181.937V181.937Z" fill="#FFB6B6"/>
<path d="M307.116 174.542L301.711 170.333L311.532 151.301L307.852 127.064C307.67 125.866 307.754 124.643 308.098 123.481C308.442 122.319 309.038 121.248 309.843 120.342C310.648 119.436 311.642 118.719 312.756 118.24C313.869 117.762 315.074 117.535 316.285 117.575C318.472 117.649 320.541 118.588 322.037 120.186C323.532 121.784 324.333 123.91 324.264 126.097L323.354 153.694L307.116 174.542Z" fill="#CCCCCC"/>
<path d="M45.889 169.342C46.2294 169 46.4907 168.588 46.6544 168.134C46.8181 167.68 46.8802 167.195 46.8364 166.715C46.7927 166.234 46.644 165.769 46.401 165.352C46.158 164.935 45.8265 164.576 45.4299 164.301L50.6863 138.193L44.8816 140.057L40.6741 165.31C40.2563 166.007 40.1086 166.833 40.2591 167.631C40.4095 168.43 40.8476 169.145 41.4904 169.642C42.1332 170.139 42.936 170.383 43.7467 170.328C44.5574 170.273 45.3196 169.922 45.889 169.342H45.889Z" fill="#9E616A"/>
<path d="M53.652 114.105L50.0505 111.386C50.0505 111.386 46.8734 111.161 46.3107 116.89C45.748 122.62 44.5926 133.786 44.5926 133.786L39.0815 159.311L46.7103 160.985L52.613 133.439L56.1541 125.259L53.652 114.105Z" fill="#CCCCCC"/>
<path d="M47.7134 155.784L68.0081 155.446L69.6994 141.578H47.7134V155.784Z" fill="#9E616A"/>
<path d="M65.9795 241.124H70.6646L72.8934 223.053L65.9785 223.053L65.9795 241.124Z" fill="#9E616A"/>
<path d="M36.6274 241.558L41.3126 241.525L43.4147 223.439L37.3214 224.836L36.6274 241.558Z" fill="#9E616A"/>
<path d="M51.2812 129.636L50.2197 132.395L50.4318 135.156L71.2083 142.352L70.1776 130.272L67.842 127.512L51.2812 129.636Z" fill="#FFB6B6"/>
<path d="M60.1935 104.797C64.2917 104.797 67.614 101.475 67.614 97.3763C67.614 93.278 64.2917 89.9557 60.1935 89.9557C56.0952 89.9557 52.7729 93.278 52.7729 97.3763C52.7729 101.475 56.0952 104.797 60.1935 104.797Z" fill="#9E616A"/>
<path d="M64.8177 238.813L72.2239 238.371V241.544L79.2652 246.407C79.613 246.647 79.875 246.992 80.0128 247.391C80.1506 247.791 80.1571 248.224 80.0313 248.628C79.9056 249.031 79.6541 249.384 79.3136 249.634C78.9732 249.885 78.5616 250.02 78.1389 250.02H69.3215L67.8017 246.881L67.2083 250.02H63.8838L64.8177 238.813Z" fill="#2F2E41"/>
<path d="M35.0248 239.258L42.4278 238.764L42.45 241.937L49.5252 246.751C49.8747 246.988 50.139 247.332 50.2796 247.73C50.4203 248.129 50.4298 248.562 50.3068 248.966C50.1839 249.371 49.9349 249.725 49.5962 249.978C49.2575 250.231 48.8469 250.369 48.4242 250.372L39.607 250.433L38.0653 247.305L37.4939 250.448L34.1694 250.471L35.0248 239.258Z" fill="#2F2E41"/>
<path d="M35.1705 227.702L38.5821 200.433L42.641 171.682C39.6686 166.162 46.3617 149.02 46.3617 149.02L47.3065 149.065L68.6905 153.099L68.6859 153.079C73.0597 165.008 74.5087 170.901 74.269 183.605L73.4074 229.271H73.6777C74.1262 229.271 74.5564 229.449 74.8736 229.766C75.1907 230.084 75.3689 230.514 75.3689 230.962C75.3689 231.411 75.1907 231.841 74.8736 232.158C74.5564 232.475 74.1262 232.654 73.6777 232.654H65.2216C64.9992 232.654 64.779 232.611 64.5735 232.526C64.3679 232.441 64.1812 232.316 64.0238 232.159C63.8665 232.002 63.7416 231.816 63.6564 231.61C63.5713 231.405 63.5274 231.185 63.5274 230.962C63.5274 230.74 63.5713 230.52 63.6564 230.314C63.7416 230.109 63.8665 229.923 64.0238 229.765C64.1812 229.608 64.3679 229.484 64.5735 229.399C64.779 229.314 64.9992 229.271 65.2216 229.271H65.4396L57.6779 174.896L51.0972 197.727L43.6558 227.493C46.3617 226.816 45.9416 228.383 45.9416 229.271C45.9416 229.72 45.7634 230.15 45.4462 230.467C45.1291 230.784 44.6989 230.962 44.2504 230.962H35.7942C35.401 230.963 35.0198 230.826 34.7166 230.576C34.4134 230.325 34.207 229.977 34.1331 229.59C34.0592 229.204 34.1224 228.804 34.3118 228.459C34.5012 228.115 34.8049 227.847 35.1706 227.702H35.1705Z" fill="#2F2E41"/>
<path d="M44.6963 149.908L45.3728 143.143C45.4431 142.867 45.5989 142.62 45.818 142.438C46.037 142.256 46.3081 142.148 46.5922 142.13C46.8741 138.907 48.06 125.005 48.1309 124.398L48.1336 124.373L48.6729 112.853C48.6925 112.435 48.8655 112.038 49.1589 111.739C49.4523 111.44 49.8456 111.26 50.2635 111.233L53.1118 111.046C53.1509 111.045 53.1879 111.029 53.2151 111.001C53.2422 110.972 53.2574 110.935 53.2574 110.896C53.2574 110.581 53.3194 110.27 53.4398 109.979C53.5601 109.689 53.7366 109.425 53.959 109.202C54.1814 108.98 54.4454 108.803 54.736 108.683C55.0266 108.563 55.3381 108.501 55.6527 108.501H64.0855C64.6317 108.501 65.1591 108.7 65.5686 109.062C65.9781 109.423 66.2416 109.922 66.3097 110.464C66.3134 110.501 66.3311 110.536 66.3592 110.56C66.3873 110.585 66.4237 110.599 66.4612 110.598H66.4622C67.4204 110.578 68.3539 110.902 69.0934 111.512C69.8329 112.122 70.3293 112.976 70.4926 113.921C71.6454 120.628 73.9559 135.852 72.8136 144.316C72.4159 147.263 73.2731 144.929 73.4235 147.394C73.4385 147.632 73.4062 147.871 73.3287 148.097C73.2512 148.323 73.1299 148.531 72.9718 148.71C73.2955 148.827 73.5598 149.068 73.7072 149.379C73.8547 149.691 73.8733 150.048 73.7592 150.373L73.9075 150.336C73.864 150.508 73.7871 150.67 73.681 150.813C73.575 150.955 73.4419 151.076 73.2893 151.167C73.1368 151.258 72.9678 151.318 72.792 151.344C72.6162 151.37 72.4371 151.361 72.2648 151.317L50.2024 154.307C49.4778 154.124 44.5137 150.632 44.6963 149.908Z" fill="#CCCCCC"/>
<path d="M103.649 122.403C103.511 122.865 103.273 123.292 102.952 123.652C102.631 124.013 102.235 124.299 101.792 124.49C101.348 124.681 100.869 124.772 100.386 124.757C99.9039 124.743 99.4305 124.623 98.9995 124.406L90.4703 132.189L89.3379 126.199L97.6163 119.745C98.0293 119.045 98.6847 118.521 99.4582 118.272C100.232 118.023 101.07 118.067 101.813 118.395C102.557 118.722 103.154 119.311 103.493 120.05C103.831 120.789 103.887 121.626 103.649 122.403H103.649Z" fill="#9E616A"/>
<path d="M73.9633 116.453C73.9633 116.453 70.9892 109.732 67.2329 111.068C63.4766 112.404 65.4161 118.925 65.4161 118.925L79.5285 140.191C79.5285 140.191 99.8839 127.133 97.4087 127.041C94.9335 126.949 94.1931 122.447 94.1931 122.447L83.4349 127.822L83.0709 125.909L82.4875 126.492L80.9819 125.307L73.9633 116.453Z" fill="#CCCCCC"/>
<path d="M317.25 109.07C322.972 109.07 327.611 104.432 327.611 98.7099C327.611 92.9882 322.972 88.3498 317.25 88.3498C311.529 88.3498 306.89 92.9882 306.89 98.7099C306.89 104.432 311.529 109.07 317.25 109.07Z" fill="#FFB6B6"/>
<path d="M350.5 113.955C349.304 115.649 347.559 116.877 345.561 117.432C344.762 117.67 343.936 117.81 343.103 117.849C343 116.907 342.753 115.986 342.372 115.118C342.41 116.042 342.282 116.965 341.992 117.843C340.741 117.772 339.518 117.444 338.398 116.88C337.299 116.327 336.343 115.525 335.608 114.538C334.872 113.552 334.377 112.407 334.16 111.196C333.722 108.362 335.006 105.579 335.471 102.75C335.937 99.9204 335.062 96.3368 332.292 95.5932C330.183 95.0265 330.419 95.2715 328.666 96.5733C330.49 99.2702 323.753 109.153 320.996 108.292C319.437 107.804 318.439 106.374 318.117 106.374C315.95 110.107 320.03 116.396 315.918 117.702L316.257 117.364C318.739 114.31 313.551 107.848 316.033 104.795C316.726 103.941 317.463 102.929 317.258 101.849C317.065 100.822 315.435 100.278 314.957 101.122C315.816 99.1556 314.548 96.5307 312.45 96.0257C310.585 95.5761 310.62 96.1301 308.749 96.3708C308.627 95.5624 308.398 94.7736 308.069 94.0251C308.104 94.8317 308.009 95.6386 307.79 96.4156C307.129 96.4027 306.491 96.172 305.975 95.7594C304.449 94.53 304.758 91.9477 306.12 90.5394C307.483 89.1311 309.509 88.624 311.442 88.2959C312.004 84.3839 322.797 83.9759 324.228 87.8847C324.837 84.9658 328.491 83.4509 331.331 84.3564C334.171 85.262 336.142 87.9145 337.18 90.7099C338.217 93.5031 338.507 96.5094 339.146 99.4197C339.785 102.33 340.865 105.294 343.09 107.277C345.314 109.259 348.938 109.915 351.282 108.074C351.623 109.047 351.729 110.086 351.594 111.108C351.458 112.13 351.083 113.105 350.5 113.955Z" fill="#2F2E41"/>
<path d="M447.696 137.596L446.245 144.874C446.136 145.43 446.022 145.996 445.898 146.557C444.685 146.306 443.428 146.376 442.252 146.761C443.185 148.095 444.022 149.495 444.755 150.948C443.841 153.765 442.5 156.368 440.255 158.25C438.755 159.48 436.964 160.302 435.054 160.638C433.145 160.974 431.181 160.812 429.352 160.168L429.416 159.88C427.002 155.195 428.313 149.289 431.314 144.963C432.844 142.829 434.657 140.912 436.703 139.265C438.73 137.577 440.92 136.062 443.091 134.566C443.579 134.231 444.155 134.049 444.747 134.043C445.338 134.037 445.918 134.207 446.413 134.533C446.907 134.858 447.293 135.323 447.521 135.869C447.75 136.415 447.811 137.016 447.696 137.596Z" fill="#E4E4E4"/>
<path d="M429.869 177.677C429.258 173.23 428.63 168.726 429.059 164.232C429.439 160.24 430.657 156.341 433.136 153.144C434.452 151.45 436.054 149.999 437.869 148.856C438.342 148.558 438.777 149.307 438.306 149.604C435.166 151.589 432.738 154.519 431.37 157.973C429.86 161.813 429.618 166 429.88 170.08C430.038 172.547 430.371 174.998 430.707 177.446C430.734 177.557 430.718 177.674 430.662 177.773C430.605 177.873 430.513 177.946 430.404 177.98C430.293 178.01 430.175 177.995 430.075 177.938C429.975 177.881 429.902 177.788 429.871 177.677L429.869 177.677Z" fill="#F2F2F2"/>
<path d="M464.409 250.841L0.591685 250.994C0.435122 250.993 0.285129 250.931 0.174582 250.82C0.064035 250.709 0.00195312 250.559 0.00195312 250.402C0.00195312 250.246 0.064035 250.095 0.174582 249.984C0.285129 249.874 0.435122 249.811 0.591685 249.811L464.409 249.658C464.565 249.658 464.715 249.721 464.826 249.832C464.936 249.943 464.999 250.093 464.999 250.249C464.999 250.406 464.936 250.556 464.826 250.667C464.715 250.778 464.565 250.84 464.409 250.841Z" fill="#CACACA"/>
<path d="M51.4605 92.8328C50.3225 93.379 49.0485 92.5573 48.066 91.743L48.4174 92.0466C46.6809 93.7361 45.869 96.1669 45.4723 98.5598C45.0752 100.95 45.0309 103.395 44.5309 105.768C44.0305 108.139 42.9925 110.521 41.0537 111.973C38.4564 113.918 34.874 113.793 31.6865 113.197C31.6441 113.188 31.6045 113.182 31.562 113.173C32.4197 110.697 32.7683 108.073 32.587 105.458C31.7326 108.078 30.2781 110.462 28.3394 112.421C26.226 111.839 24.1632 111.087 22.1712 110.173C20.8822 109.58 19.4943 108.769 19.1366 107.395C18.778 106.032 19.6108 104.602 20.7244 103.741C21.838 102.88 23.2047 102.431 24.4733 101.818C25.7399 101.208 26.9932 100.338 27.5003 99.0239C28.67 96.0018 25.338 92.534 26.6365 89.5633C27.2769 88.1025 28.8453 87.3079 30.3196 86.6952C32.5701 85.7625 34.8811 84.983 37.2368 84.362C39.3048 83.8165 41.464 83.3926 43.5706 83.7502C45.6773 84.1078 47.7411 85.3891 48.4994 87.3898C49.7644 87.8173 51.1075 88.2992 51.9194 89.3641C52.7309 90.4265 52.6655 92.2554 51.4605 92.8328Z" fill="#2F2E41"/>
<path d="M61.5864 89.3305C58.3307 86.7602 55.6982 87.199 53.6675 88.7958C53.3261 88.4161 51.8733 89.461 51.3814 89.3108L49.6022 92.6509C48.6866 94.2665 48.311 95.9157 48.459 96.8439C46.7749 101.567 50.7685 104.756 55.4914 106.44C57.3759 107.117 59.4321 107.146 61.3354 106.525L61.3934 105.72L61.7511 106.379C61.7511 106.379 66.0687 115.269 67.0889 115.669C66.4699 114.063 64.8371 106.43 64.3813 104.839C63.7564 102.675 64.1833 99.2356 64.5506 97.1271C64.7795 95.8272 64.7915 94.4983 64.586 93.1944L64.5769 93.1374L65.5871 95.1767L67.8536 93.7514C66.9874 91.2284 66.9701 88.2101 61.5864 89.3305Z" fill="#2F2E41"/>
</g>
<defs>
<clipPath id="clip0_1169_20038">
<rect width="465" height="250.993" fill="white"/>
</clipPath>
</defs>
</svg>
